<svg xmlns="http://www.w3.org/2000/svg" xmlns:xlink="http://www.w3.org/1999/xlink" width="500" zoomAndPan="magnify" viewBox="0 0 375 374.999991" height="500" preserveAspectRatio="xMidYMid meet" version="1.2"><defs><clipPath id="6e8053d15c"><path d="M 9.09375 155.015625 L 84.09375 155.015625 L 84.09375 220 L 9.09375 220 Z M 9.09375 155.015625 "/></clipPath><clipPath id="41caae6bd1"><path d="M 34 155.015625 L 84.09375 155.015625 L 84.09375 220 L 34 220 Z M 34 155.015625 "/></clipPath></defs><g id="16f1b7d7fc"><g clip-rule="nonzero" clip-path="url(#6e8053d15c)"><path style=" stroke:none;fill-rule:nonzero;fill:#3c6dcb;fill-opacity:1;" d="M 84.09375 219.972656 L 46.59375 204.320312 L 9.09375 219.972656 L 46.59375 155.019531 L 84.09375 219.972656 "/></g><g clip-rule="nonzero" clip-path="url(#41caae6bd1)"><path style=" stroke:none;fill-rule:nonzero;fill:#18278b;fill-opacity:1;" d="M 84.09375 219.972656 L 58.605469 219.972656 L 34.4375 176.074219 L 46.59375 155.019531 L 84.09375 219.972656 "/></g><g style="fill:#18278b;fill-opacity:1;"><g transform="translate(95.86154, 195.293939)"><path style="stroke:none" d="M 15.4375 0 L 14.09375 -4.09375 L 5.984375 -4.09375 L 4.640625 0 L -0.46875 0 L 7.359375 -21.75 L 12.71875 -21.75 L 20.546875 0 Z M 7.25 -8.078125 L 12.828125 -8.078125 L 10.046875 -16.71875 Z M 7.25 -8.078125 "/></g></g><g style="fill:#18278b;fill-opacity:1;"><g transform="translate(115.944653, 195.293939)"><path style="stroke:none" d="M 6.921875 -4.234375 L 14.140625 -4.234375 L 14.140625 0 L 2.140625 0 L 2.140625 -21.75 L 6.921875 -21.75 Z M 6.921875 -4.234375 "/></g></g><g style="fill:#18278b;fill-opacity:1;"><g transform="translate(130.155097, 195.293939)"><path style="stroke:none" d="M 11.375 -21.75 C 12.613281 -21.75 13.722656 -21.453125 14.703125 -20.859375 C 15.679688 -20.265625 16.453125 -19.472656 17.015625 -18.484375 C 17.585938 -17.492188 17.875 -16.394531 17.875 -15.1875 C 17.875 -13.976562 17.585938 -12.890625 17.015625 -11.921875 C 16.453125 -10.953125 15.679688 -10.191406 14.703125 -9.640625 C 13.722656 -9.085938 12.613281 -8.8125 11.375 -8.8125 L 6.921875 -8.8125 L 6.921875 0 L 2.140625 0 L 2.140625 -21.75 Z M 10.625 -12.765625 C 11.394531 -12.765625 12.03125 -12.976562 12.53125 -13.40625 C 13.039062 -13.84375 13.296875 -14.425781 13.296875 -15.15625 C 13.296875 -15.851562 13.039062 -16.425781 12.53125 -16.875 C 12.03125 -17.320312 11.394531 -17.546875 10.625 -17.546875 L 6.921875 -17.546875 L 6.921875 -12.765625 Z M 10.625 -12.765625 "/></g></g><g style="fill:#18278b;fill-opacity:1;"><g transform="translate(148.171895, 195.293939)"><path style="stroke:none" d="M 15.765625 -21.75 L 20.515625 -21.75 L 20.515625 0 L 15.765625 0 L 15.765625 -8.765625 L 6.921875 -8.765625 L 6.921875 0 L 2.140625 0 L 2.140625 -21.75 L 6.921875 -21.75 L 6.921875 -13.015625 L 15.765625 -13.015625 Z M 15.765625 -21.75 "/></g></g><g style="fill:#18278b;fill-opacity:1;"><g transform="translate(170.865095, 195.293939)"><path style="stroke:none" d="M 15.4375 0 L 14.09375 -4.09375 L 5.984375 -4.09375 L 4.640625 0 L -0.46875 0 L 7.359375 -21.75 L 12.71875 -21.75 L 20.546875 0 Z M 7.25 -8.078125 L 12.828125 -8.078125 L 10.046875 -16.71875 Z M 7.25 -8.078125 "/></g></g><g style="fill:#18278b;fill-opacity:1;"><g transform="translate(190.948207, 195.293939)"><path style="stroke:none" d=""/></g></g><g style="fill:#3c6dcb;fill-opacity:1;"><g transform="translate(199.658778, 195.293939)"><path style="stroke:none" d="M 13.484375 -8.953125 L 19.578125 0 L 14.203125 0 L 8.84375 -8.40625 L 6.921875 -8.40625 L 6.921875 0 L 2.140625 0 L 2.140625 -21.75 L 11.375 -21.75 C 12.632812 -21.75 13.75 -21.453125 14.71875 -20.859375 C 15.6875 -20.265625 16.453125 -19.457031 17.015625 -18.4375 C 17.585938 -17.425781 17.875 -16.304688 17.875 -15.078125 C 17.875 -13.609375 17.460938 -12.316406 16.640625 -11.203125 C 15.816406 -10.085938 14.765625 -9.335938 13.484375 -8.953125 Z M 10.65625 -12.359375 C 11.425781 -12.359375 12.054688 -12.597656 12.546875 -13.078125 C 13.046875 -13.566406 13.296875 -14.1875 13.296875 -14.9375 C 13.296875 -15.6875 13.046875 -16.300781 12.546875 -16.78125 C 12.054688 -17.269531 11.425781 -17.515625 10.65625 -17.515625 L 6.921875 -17.515625 L 6.921875 -12.359375 Z M 10.65625 -12.359375 "/></g></g><g style="fill:#3c6dcb;fill-opacity:1;"><g transform="translate(219.053124, 195.293939)"><path style="stroke:none" d="M 15.40625 -17.546875 L 7.109375 -17.546875 L 7.109375 -12.984375 L 14.203125 -12.984375 L 14.203125 -8.765625 L 7.109375 -8.765625 L 7.109375 -4.203125 L 15.40625 -4.203125 L 15.40625 0 L 2.3125 0 L 2.3125 -21.75 L 15.40625 -21.75 Z M 15.40625 -17.546875 "/></g></g><g style="fill:#3c6dcb;fill-opacity:1;"><g transform="translate(235.946146, 195.293939)"><path style="stroke:none" d="M 8.84375 0.296875 C 6.9375 0.296875 5.253906 -0.171875 3.796875 -1.109375 C 2.347656 -2.054688 1.273438 -3.207031 0.578125 -4.5625 L 4.53125 -7.03125 C 4.9375 -6.1875 5.515625 -5.503906 6.265625 -4.984375 C 7.015625 -4.460938 7.882812 -4.203125 8.875 -4.203125 C 9.726562 -4.203125 10.390625 -4.382812 10.859375 -4.75 C 11.328125 -5.113281 11.5625 -5.597656 11.5625 -6.203125 C 11.5625 -6.828125 11.316406 -7.332031 10.828125 -7.71875 C 10.347656 -8.101562 9.726562 -8.425781 8.96875 -8.6875 C 8.207031 -8.957031 7.394531 -9.242188 6.53125 -9.546875 C 5.675781 -9.847656 4.867188 -10.238281 4.109375 -10.71875 C 3.347656 -11.207031 2.722656 -11.835938 2.234375 -12.609375 C 1.753906 -13.390625 1.515625 -14.394531 1.515625 -15.625 C 1.515625 -17.070312 1.851562 -18.265625 2.53125 -19.203125 C 3.207031 -20.148438 4.082031 -20.859375 5.15625 -21.328125 C 6.238281 -21.804688 7.347656 -22.046875 8.484375 -22.046875 C 9.835938 -22.046875 11.09375 -21.757812 12.25 -21.1875 C 13.414062 -20.625 14.394531 -19.878906 15.1875 -18.953125 L 12 -15.90625 C 11.46875 -16.507812 10.898438 -16.972656 10.296875 -17.296875 C 9.691406 -17.628906 9.078125 -17.796875 8.453125 -17.796875 C 7.867188 -17.796875 7.367188 -17.648438 6.953125 -17.359375 C 6.546875 -17.066406 6.34375 -16.609375 6.34375 -15.984375 C 6.34375 -15.359375 6.582031 -14.863281 7.0625 -14.5 C 7.550781 -14.132812 8.175781 -13.816406 8.9375 -13.546875 C 9.695312 -13.285156 10.5 -13 11.34375 -12.6875 C 12.1875 -12.375 12.988281 -11.960938 13.75 -11.453125 C 14.519531 -10.941406 15.144531 -10.269531 15.625 -9.4375 C 16.101562 -8.601562 16.34375 -7.507812 16.34375 -6.15625 C 16.34375 -4.800781 16 -3.640625 15.3125 -2.671875 C 14.625 -1.710938 13.710938 -0.976562 12.578125 -0.46875 C 11.441406 0.0390625 10.195312 0.296875 8.84375 0.296875 Z M 8.84375 0.296875 "/></g></g><g style="fill:#3c6dcb;fill-opacity:1;"><g transform="translate(253.129169, 195.293939)"><path style="stroke:none" d="M 15.40625 -17.546875 L 7.109375 -17.546875 L 7.109375 -12.984375 L 14.203125 -12.984375 L 14.203125 -8.765625 L 7.109375 -8.765625 L 7.109375 -4.203125 L 15.40625 -4.203125 L 15.40625 0 L 2.3125 0 L 2.3125 -21.75 L 15.40625 -21.75 Z M 15.40625 -17.546875 "/></g></g><g style="fill:#3c6dcb;fill-opacity:1;"><g transform="translate(270.02219, 195.293939)"><path style="stroke:none" d="M 15.4375 0 L 14.09375 -4.09375 L 5.984375 -4.09375 L 4.640625 0 L -0.46875 0 L 7.359375 -21.75 L 12.71875 -21.75 L 20.546875 0 Z M 7.25 -8.078125 L 12.828125 -8.078125 L 10.046875 -16.71875 Z M 7.25 -8.078125 "/></g></g><g style="fill:#3c6dcb;fill-opacity:1;"><g transform="translate(290.105303, 195.293939)"><path style="stroke:none" d="M 13.484375 -8.953125 L 19.578125 0 L 14.203125 0 L 8.84375 -8.40625 L 6.921875 -8.40625 L 6.921875 0 L 2.140625 0 L 2.140625 -21.75 L 11.375 -21.75 C 12.632812 -21.75 13.75 -21.453125 14.71875 -20.859375 C 15.6875 -20.265625 16.453125 -19.457031 17.015625 -18.4375 C 17.585938 -17.425781 17.875 -16.304688 17.875 -15.078125 C 17.875 -13.609375 17.460938 -12.316406 16.640625 -11.203125 C 15.816406 -10.085938 14.765625 -9.335938 13.484375 -8.953125 Z M 10.65625 -12.359375 C 11.425781 -12.359375 12.054688 -12.597656 12.546875 -13.078125 C 13.046875 -13.566406 13.296875 -14.1875 13.296875 -14.9375 C 13.296875 -15.6875 13.046875 -16.300781 12.546875 -16.78125 C 12.054688 -17.269531 11.425781 -17.515625 10.65625 -17.515625 L 6.921875 -17.515625 L 6.921875 -12.359375 Z M 10.65625 -12.359375 "/></g></g><g style="fill:#3c6dcb;fill-opacity:1;"><g transform="translate(309.499649, 195.293939)"><path style="stroke:none" d="M 12.5 0.296875 C 10.957031 0.296875 9.515625 0.00390625 8.171875 -0.578125 C 6.828125 -1.160156 5.640625 -1.960938 4.609375 -2.984375 C 3.585938 -4.015625 2.785156 -5.203125 2.203125 -6.546875 C 1.628906 -7.890625 1.34375 -9.332031 1.34375 -10.875 C 1.34375 -12.414062 1.628906 -13.859375 2.203125 -15.203125 C 2.785156 -16.546875 3.585938 -17.726562 4.609375 -18.75 C 5.640625 -19.78125 6.828125 -20.585938 8.171875 -21.171875 C 9.515625 -21.753906 10.957031 -22.046875 12.5 -22.046875 C 14.65625 -22.046875 16.613281 -21.492188 18.375 -20.390625 C 20.144531 -19.285156 21.488281 -17.84375 22.40625 -16.0625 L 18.265625 -13.921875 C 17.734375 -14.960938 16.957031 -15.796875 15.9375 -16.421875 C 14.925781 -17.046875 13.78125 -17.359375 12.5 -17.359375 C 11.289062 -17.359375 10.195312 -17.070312 9.21875 -16.5 C 8.238281 -15.9375 7.460938 -15.164062 6.890625 -14.1875 C 6.328125 -13.207031 6.046875 -12.101562 6.046875 -10.875 C 6.046875 -9.644531 6.328125 -8.539062 6.890625 -7.5625 C 7.460938 -6.582031 8.238281 -5.804688 9.21875 -5.234375 C 10.195312 -4.671875 11.289062 -4.390625 12.5 -4.390625 C 13.78125 -4.390625 14.925781 -4.703125 15.9375 -5.328125 C 16.957031 -5.953125 17.734375 -6.785156 18.265625 -7.828125 L 22.40625 -5.6875 C 21.488281 -3.925781 20.144531 -2.488281 18.375 -1.375 C 16.613281 -0.257812 14.65625 0.296875 12.5 0.296875 Z M 12.5 0.296875 "/></g></g><g style="fill:#3c6dcb;fill-opacity:1;"><g transform="translate(332.845371, 195.293939)"><path style="stroke:none" d="M 15.765625 -21.75 L 20.515625 -21.75 L 20.515625 0 L 15.765625 0 L 15.765625 -8.765625 L 6.921875 -8.765625 L 6.921875 0 L 2.140625 0 L 2.140625 -21.75 L 6.921875 -21.75 L 6.921875 -13.015625 L 15.765625 -13.015625 Z M 15.765625 -21.75 "/></g></g></g></svg>