<svg xmlns="http://www.w3.org/2000/svg" xmlns:xlink="http://www.w3.org/1999/xlink" width="500" zoomAndPan="magnify" viewBox="0 0 375 374.999991" height="500" preserveAspectRatio="xMidYMid meet" version="1.2"><defs/><g id="d6b90a224f"><g style="fill:#18278b;fill-opacity:1;"><g transform="translate(20.560343, 197.521039)"><path style="stroke:none" d="M 19.859375 0 L 18.125 -5.265625 L 7.6875 -5.265625 L 5.96875 0 L -0.609375 0 L 9.453125 -27.953125 L 16.359375 -27.953125 L 26.421875 0 Z M 9.3125 -10.390625 L 16.5 -10.390625 L 12.90625 -21.484375 Z M 9.3125 -10.390625 "/></g></g><g style="fill:#18278b;fill-opacity:1;"><g transform="translate(46.381956, 197.521039)"><path style="stroke:none" d="M 8.90625 -5.453125 L 18.171875 -5.453125 L 18.171875 0 L 2.75 0 L 2.75 -27.953125 L 8.90625 -27.953125 Z M 8.90625 -5.453125 "/></g></g><g style="fill:#18278b;fill-opacity:1;"><g transform="translate(64.652858, 197.521039)"><path style="stroke:none" d="M 14.640625 -27.953125 C 16.222656 -27.953125 17.640625 -27.570312 18.890625 -26.8125 C 20.148438 -26.050781 21.144531 -25.035156 21.875 -23.765625 C 22.601562 -22.492188 22.96875 -21.082031 22.96875 -19.53125 C 22.96875 -17.976562 22.601562 -16.578125 21.875 -15.328125 C 21.144531 -14.085938 20.148438 -13.109375 18.890625 -12.390625 C 17.640625 -11.679688 16.222656 -11.328125 14.640625 -11.328125 L 8.90625 -11.328125 L 8.90625 0 L 2.75 0 L 2.75 -27.953125 Z M 13.65625 -16.40625 C 14.644531 -16.40625 15.46875 -16.679688 16.125 -17.234375 C 16.78125 -17.796875 17.109375 -18.546875 17.109375 -19.484375 C 17.109375 -20.378906 16.78125 -21.113281 16.125 -21.6875 C 15.46875 -22.269531 14.644531 -22.5625 13.65625 -22.5625 L 8.90625 -22.5625 L 8.90625 -16.40625 Z M 13.65625 -16.40625 "/></g></g><g style="fill:#18278b;fill-opacity:1;"><g transform="translate(87.817733, 197.521039)"><path style="stroke:none" d="M 20.265625 -27.953125 L 26.375 -27.953125 L 26.375 0 L 20.265625 0 L 20.265625 -11.28125 L 8.90625 -11.28125 L 8.90625 0 L 2.75 0 L 2.75 -27.953125 L 8.90625 -27.953125 L 8.90625 -16.734375 L 20.265625 -16.734375 Z M 20.265625 -27.953125 "/></g></g><g style="fill:#18278b;fill-opacity:1;"><g transform="translate(116.995233, 197.521039)"><path style="stroke:none" d="M 19.859375 0 L 18.125 -5.265625 L 7.6875 -5.265625 L 5.96875 0 L -0.609375 0 L 9.453125 -27.953125 L 16.359375 -27.953125 L 26.421875 0 Z M 9.3125 -10.390625 L 16.5 -10.390625 L 12.90625 -21.484375 Z M 9.3125 -10.390625 "/></g></g><g style="fill:#18278b;fill-opacity:1;"><g transform="translate(142.816846, 197.521039)"><path style="stroke:none" d=""/></g></g><g style="fill:#3c6dcb;fill-opacity:1;"><g transform="translate(154.016355, 197.521039)"><path style="stroke:none" d="M 17.328125 -11.515625 L 25.171875 0 L 18.265625 0 L 11.375 -10.8125 L 8.90625 -10.8125 L 8.90625 0 L 2.75 0 L 2.75 -27.953125 L 14.640625 -27.953125 C 16.253906 -27.953125 17.679688 -27.570312 18.921875 -26.8125 C 20.160156 -26.050781 21.144531 -25.019531 21.875 -23.71875 C 22.601562 -22.414062 22.96875 -20.972656 22.96875 -19.390625 C 22.96875 -17.492188 22.441406 -15.828125 21.390625 -14.390625 C 20.335938 -12.960938 18.984375 -12.003906 17.328125 -11.515625 Z M 13.703125 -15.890625 C 14.691406 -15.890625 15.503906 -16.195312 16.140625 -16.8125 C 16.785156 -17.4375 17.109375 -18.234375 17.109375 -19.203125 C 17.109375 -20.160156 16.785156 -20.953125 16.140625 -21.578125 C 15.503906 -22.203125 14.691406 -22.515625 13.703125 -22.515625 L 8.90625 -22.515625 L 8.90625 -15.890625 Z M 13.703125 -15.890625 "/></g></g><g style="fill:#3c6dcb;fill-opacity:1;"><g transform="translate(178.952395, 197.521039)"><path style="stroke:none" d="M 19.8125 -22.5625 L 9.140625 -22.5625 L 9.140625 -16.6875 L 18.265625 -16.6875 L 18.265625 -11.28125 L 9.140625 -11.28125 L 9.140625 -5.40625 L 19.8125 -5.40625 L 19.8125 0 L 2.984375 0 L 2.984375 -27.953125 L 19.8125 -27.953125 Z M 19.8125 -22.5625 "/></g></g><g style="fill:#3c6dcb;fill-opacity:1;"><g transform="translate(200.672388, 197.521039)"><path style="stroke:none" d="M 11.375 0.375 C 8.914062 0.375 6.753906 -0.226562 4.890625 -1.4375 C 3.023438 -2.65625 1.644531 -4.132812 0.75 -5.875 L 5.828125 -9.046875 C 6.359375 -7.953125 7.101562 -7.070312 8.0625 -6.40625 C 9.019531 -5.738281 10.140625 -5.40625 11.421875 -5.40625 C 12.503906 -5.40625 13.347656 -5.632812 13.953125 -6.09375 C 14.554688 -6.5625 14.859375 -7.1875 14.859375 -7.96875 C 14.859375 -8.78125 14.546875 -9.429688 13.921875 -9.921875 C 13.304688 -10.421875 12.507812 -10.84375 11.53125 -11.1875 C 10.550781 -11.53125 9.507812 -11.894531 8.40625 -12.28125 C 7.300781 -12.664062 6.257812 -13.164062 5.28125 -13.78125 C 4.3125 -14.40625 3.515625 -15.210938 2.890625 -16.203125 C 2.265625 -17.203125 1.953125 -18.492188 1.953125 -20.078125 C 1.953125 -21.941406 2.382812 -23.476562 3.25 -24.6875 C 4.125 -25.90625 5.253906 -26.816406 6.640625 -27.421875 C 8.023438 -28.023438 9.445312 -28.328125 10.90625 -28.328125 C 12.644531 -28.328125 14.257812 -27.960938 15.75 -27.234375 C 17.238281 -26.503906 18.5 -25.550781 19.53125 -24.375 L 15.421875 -20.453125 C 14.742188 -21.234375 14.015625 -21.832031 13.234375 -22.25 C 12.453125 -22.664062 11.660156 -22.875 10.859375 -22.875 C 10.109375 -22.875 9.46875 -22.6875 8.9375 -22.3125 C 8.414062 -21.945312 8.15625 -21.359375 8.15625 -20.546875 C 8.15625 -19.742188 8.460938 -19.109375 9.078125 -18.640625 C 9.703125 -18.171875 10.503906 -17.765625 11.484375 -17.421875 C 12.460938 -17.085938 13.492188 -16.71875 14.578125 -16.3125 C 15.671875 -15.90625 16.707031 -15.375 17.6875 -14.71875 C 18.664062 -14.070312 19.460938 -13.210938 20.078125 -12.140625 C 20.703125 -11.066406 21.015625 -9.660156 21.015625 -7.921875 C 21.015625 -6.179688 20.570312 -4.6875 19.6875 -3.4375 C 18.800781 -2.195312 17.628906 -1.25 16.171875 -0.59375 C 14.710938 0.0507812 13.113281 0.375 11.375 0.375 Z M 11.375 0.375 "/></g></g><g style="fill:#3c6dcb;fill-opacity:1;"><g transform="translate(222.765247, 197.521039)"><path style="stroke:none" d="M 19.8125 -22.5625 L 9.140625 -22.5625 L 9.140625 -16.6875 L 18.265625 -16.6875 L 18.265625 -11.28125 L 9.140625 -11.28125 L 9.140625 -5.40625 L 19.8125 -5.40625 L 19.8125 0 L 2.984375 0 L 2.984375 -27.953125 L 19.8125 -27.953125 Z M 19.8125 -22.5625 "/></g></g><g style="fill:#3c6dcb;fill-opacity:1;"><g transform="translate(244.48524, 197.521039)"><path style="stroke:none" d="M 19.859375 0 L 18.125 -5.265625 L 7.6875 -5.265625 L 5.96875 0 L -0.609375 0 L 9.453125 -27.953125 L 16.359375 -27.953125 L 26.421875 0 Z M 9.3125 -10.390625 L 16.5 -10.390625 L 12.90625 -21.484375 Z M 9.3125 -10.390625 "/></g></g><g style="fill:#3c6dcb;fill-opacity:1;"><g transform="translate(270.306853, 197.521039)"><path style="stroke:none" d="M 17.328125 -11.515625 L 25.171875 0 L 18.265625 0 L 11.375 -10.8125 L 8.90625 -10.8125 L 8.90625 0 L 2.75 0 L 2.75 -27.953125 L 14.640625 -27.953125 C 16.253906 -27.953125 17.679688 -27.570312 18.921875 -26.8125 C 20.160156 -26.050781 21.144531 -25.019531 21.875 -23.71875 C 22.601562 -22.414062 22.96875 -20.972656 22.96875 -19.390625 C 22.96875 -17.492188 22.441406 -15.828125 21.390625 -14.390625 C 20.335938 -12.960938 18.984375 -12.003906 17.328125 -11.515625 Z M 13.703125 -15.890625 C 14.691406 -15.890625 15.503906 -16.195312 16.140625 -16.8125 C 16.785156 -17.4375 17.109375 -18.234375 17.109375 -19.203125 C 17.109375 -20.160156 16.785156 -20.953125 16.140625 -21.578125 C 15.503906 -22.203125 14.691406 -22.515625 13.703125 -22.515625 L 8.90625 -22.515625 L 8.90625 -15.890625 Z M 13.703125 -15.890625 "/></g></g><g style="fill:#3c6dcb;fill-opacity:1;"><g transform="translate(295.242893, 197.521039)"><path style="stroke:none" d="M 16.078125 0.375 C 14.085938 0.375 12.226562 0.00390625 10.5 -0.734375 C 8.78125 -1.484375 7.257812 -2.519531 5.9375 -3.84375 C 4.625 -5.164062 3.59375 -6.6875 2.84375 -8.40625 C 2.09375 -10.132812 1.71875 -11.992188 1.71875 -13.984375 C 1.71875 -15.972656 2.09375 -17.828125 2.84375 -19.546875 C 3.59375 -21.273438 4.625 -22.796875 5.9375 -24.109375 C 7.257812 -25.429688 8.78125 -26.460938 10.5 -27.203125 C 12.226562 -27.953125 14.085938 -28.328125 16.078125 -28.328125 C 18.835938 -28.328125 21.351562 -27.617188 23.625 -26.203125 C 25.894531 -24.796875 27.617188 -22.941406 28.796875 -20.640625 L 23.484375 -17.890625 C 22.804688 -19.234375 21.8125 -20.304688 20.5 -21.109375 C 19.195312 -21.921875 17.722656 -22.328125 16.078125 -22.328125 C 14.523438 -22.328125 13.117188 -21.957031 11.859375 -21.21875 C 10.597656 -20.488281 9.601562 -19.492188 8.875 -18.234375 C 8.144531 -16.984375 7.78125 -15.566406 7.78125 -13.984375 C 7.78125 -12.398438 8.144531 -10.976562 8.875 -9.71875 C 9.601562 -8.457031 10.597656 -7.460938 11.859375 -6.734375 C 13.117188 -6.003906 14.523438 -5.640625 16.078125 -5.640625 C 17.722656 -5.640625 19.195312 -6.039062 20.5 -6.84375 C 21.8125 -7.65625 22.804688 -8.726562 23.484375 -10.0625 L 28.796875 -7.3125 C 27.617188 -5.050781 25.894531 -3.203125 23.625 -1.765625 C 21.351562 -0.335938 18.835938 0.375 16.078125 0.375 Z M 16.078125 0.375 "/></g></g><g style="fill:#3c6dcb;fill-opacity:1;"><g transform="translate(325.259365, 197.521039)"><path style="stroke:none" d="M 20.265625 -27.953125 L 26.375 -27.953125 L 26.375 0 L 20.265625 0 L 20.265625 -11.28125 L 8.90625 -11.28125 L 8.90625 0 L 2.75 0 L 2.75 -27.953125 L 8.90625 -27.953125 L 8.90625 -16.734375 L 20.265625 -16.734375 Z M 20.265625 -27.953125 "/></g></g></g></svg>