<svg xmlns="http://www.w3.org/2000/svg" xmlns:xlink="http://www.w3.org/1999/xlink" width="500" zoomAndPan="magnify" viewBox="0 0 375 374.999991" height="500" preserveAspectRatio="xMidYMid meet" version="1.2"><defs><clipPath id="e438162466"><path d="M 112.5 90.21875 L 262.5 90.21875 L 262.5 219.96875 L 112.5 219.96875 Z M 112.5 90.21875 "/></clipPath><clipPath id="0a2619724d"><path d="M 163 90.21875 L 262.5 90.21875 L 262.5 219.96875 L 163 219.96875 Z M 163 90.21875 "/></clipPath></defs><g id="d705b4d7dc"><g clip-rule="nonzero" clip-path="url(#e438162466)"><path style=" stroke:none;fill-rule:nonzero;fill:#3c6dcb;fill-opacity:1;" d="M 262.28125 219.945312 L 187.390625 188.6875 L 112.5 219.945312 L 187.390625 90.230469 L 262.28125 219.945312 "/></g><g clip-rule="nonzero" clip-path="url(#0a2619724d)"><path style=" stroke:none;fill-rule:nonzero;fill:#18278b;fill-opacity:1;" d="M 262.28125 219.945312 L 211.382812 219.945312 L 163.113281 132.277344 L 187.390625 90.230469 L 262.28125 219.945312 "/></g><g style="fill:#ffffff;fill-opacity:1;"><g transform="translate(80.049953, 253.842171)"><path style="stroke:none" d="M 12.78125 0 L 11.671875 -3.390625 L 4.953125 -3.390625 L 3.84375 0 L -0.390625 0 L 6.09375 -18 L 10.53125 -18 L 17.015625 0 Z M 6 -6.6875 L 10.625 -6.6875 L 8.3125 -13.828125 Z M 6 -6.6875 "/></g></g><g style="fill:#ffffff;fill-opacity:1;"><g transform="translate(96.669931, 253.842171)"><path style="stroke:none" d="M 5.734375 -3.515625 L 11.703125 -3.515625 L 11.703125 0 L 1.765625 0 L 1.765625 -18 L 5.734375 -18 Z M 5.734375 -3.515625 "/></g></g><g style="fill:#ffffff;fill-opacity:1;"><g transform="translate(108.429925, 253.842171)"><path style="stroke:none" d="M 9.421875 -18 C 10.441406 -18 11.351562 -17.753906 12.15625 -17.265625 C 12.96875 -16.773438 13.609375 -16.117188 14.078125 -15.296875 C 14.554688 -14.472656 14.796875 -13.5625 14.796875 -12.5625 C 14.796875 -11.5625 14.554688 -10.660156 14.078125 -9.859375 C 13.609375 -9.066406 12.96875 -8.441406 12.15625 -7.984375 C 11.351562 -7.523438 10.441406 -7.296875 9.421875 -7.296875 L 5.734375 -7.296875 L 5.734375 0 L 1.765625 0 L 1.765625 -18 Z M 8.796875 -10.5625 C 9.429688 -10.5625 9.957031 -10.738281 10.375 -11.09375 C 10.800781 -11.457031 11.015625 -11.941406 11.015625 -12.546875 C 11.015625 -13.117188 10.800781 -13.585938 10.375 -13.953125 C 9.957031 -14.328125 9.429688 -14.515625 8.796875 -14.515625 L 5.734375 -14.515625 L 5.734375 -10.5625 Z M 8.796875 -10.5625 "/></g></g><g style="fill:#ffffff;fill-opacity:1;"><g transform="translate(123.339905, 253.842171)"><path style="stroke:none" d="M 13.046875 -18 L 16.984375 -18 L 16.984375 0 L 13.046875 0 L 13.046875 -7.265625 L 5.734375 -7.265625 L 5.734375 0 L 1.765625 0 L 1.765625 -18 L 5.734375 -18 L 5.734375 -10.765625 L 13.046875 -10.765625 Z M 13.046875 -18 "/></g></g><g style="fill:#ffffff;fill-opacity:1;"><g transform="translate(142.119887, 253.842171)"><path style="stroke:none" d="M 12.78125 0 L 11.671875 -3.390625 L 4.953125 -3.390625 L 3.84375 0 L -0.390625 0 L 6.09375 -18 L 10.53125 -18 L 17.015625 0 Z M 6 -6.6875 L 10.625 -6.6875 L 8.3125 -13.828125 Z M 6 -6.6875 "/></g></g><g style="fill:#ffffff;fill-opacity:1;"><g transform="translate(158.739866, 253.842171)"><path style="stroke:none" d=""/></g></g><g style="fill:#ffffff;fill-opacity:1;"><g transform="translate(165.939858, 253.842171)"><path style="stroke:none" d="M 11.15625 -7.40625 L 16.203125 0 L 11.765625 0 L 7.3125 -6.953125 L 5.734375 -6.953125 L 5.734375 0 L 1.765625 0 L 1.765625 -18 L 9.421875 -18 C 10.460938 -18 11.378906 -17.753906 12.171875 -17.265625 C 12.972656 -16.773438 13.609375 -16.109375 14.078125 -15.265625 C 14.554688 -14.429688 14.796875 -13.503906 14.796875 -12.484375 C 14.796875 -11.265625 14.453125 -10.191406 13.765625 -9.265625 C 13.085938 -8.347656 12.21875 -7.726562 11.15625 -7.40625 Z M 8.8125 -10.234375 C 9.457031 -10.234375 9.984375 -10.429688 10.390625 -10.828125 C 10.804688 -11.234375 11.015625 -11.742188 11.015625 -12.359375 C 11.015625 -12.984375 10.804688 -13.492188 10.390625 -13.890625 C 9.984375 -14.285156 9.457031 -14.484375 8.8125 -14.484375 L 5.734375 -14.484375 L 5.734375 -10.234375 Z M 8.8125 -10.234375 "/></g></g><g style="fill:#ffffff;fill-opacity:1;"><g transform="translate(181.989841, 253.842171)"><path style="stroke:none" d="M 12.75 -14.515625 L 5.875 -14.515625 L 5.875 -10.734375 L 11.765625 -10.734375 L 11.765625 -7.265625 L 5.875 -7.265625 L 5.875 -3.484375 L 12.75 -3.484375 L 12.75 0 L 1.921875 0 L 1.921875 -18 L 12.75 -18 Z M 12.75 -14.515625 "/></g></g><g style="fill:#ffffff;fill-opacity:1;"><g transform="translate(195.969829, 253.842171)"><path style="stroke:none" d="M 7.3125 0.234375 C 5.738281 0.234375 4.347656 -0.148438 3.140625 -0.921875 C 1.941406 -1.703125 1.054688 -2.65625 0.484375 -3.78125 L 3.75 -5.8125 C 4.09375 -5.113281 4.570312 -4.550781 5.1875 -4.125 C 5.8125 -3.695312 6.53125 -3.484375 7.34375 -3.484375 C 8.050781 -3.484375 8.597656 -3.628906 8.984375 -3.921875 C 9.367188 -4.222656 9.5625 -4.625 9.5625 -5.125 C 9.5625 -5.644531 9.363281 -6.066406 8.96875 -6.390625 C 8.570312 -6.710938 8.054688 -6.984375 7.421875 -7.203125 C 6.796875 -7.421875 6.125 -7.65625 5.40625 -7.90625 C 4.695312 -8.15625 4.023438 -8.476562 3.390625 -8.875 C 2.765625 -9.28125 2.253906 -9.800781 1.859375 -10.4375 C 1.460938 -11.082031 1.265625 -11.914062 1.265625 -12.9375 C 1.265625 -14.132812 1.539062 -15.117188 2.09375 -15.890625 C 2.65625 -16.671875 3.378906 -17.253906 4.265625 -17.640625 C 5.160156 -18.035156 6.078125 -18.234375 7.015625 -18.234375 C 8.140625 -18.234375 9.179688 -18 10.140625 -17.53125 C 11.097656 -17.0625 11.90625 -16.445312 12.5625 -15.6875 L 9.9375 -13.171875 C 9.488281 -13.671875 9.015625 -14.054688 8.515625 -14.328125 C 8.015625 -14.597656 7.503906 -14.734375 6.984375 -14.734375 C 6.503906 -14.734375 6.09375 -14.613281 5.75 -14.375 C 5.414062 -14.132812 5.25 -13.753906 5.25 -13.234375 C 5.25 -12.710938 5.445312 -12.300781 5.84375 -12 C 6.25 -11.695312 6.765625 -11.4375 7.390625 -11.21875 C 8.023438 -11 8.691406 -10.757812 9.390625 -10.5 C 10.085938 -10.238281 10.75 -9.894531 11.375 -9.46875 C 12.007812 -9.050781 12.523438 -8.5 12.921875 -7.8125 C 13.328125 -7.125 13.53125 -6.21875 13.53125 -5.09375 C 13.53125 -3.976562 13.242188 -3.019531 12.671875 -2.21875 C 12.097656 -1.414062 11.34375 -0.804688 10.40625 -0.390625 C 9.46875 0.0234375 8.4375 0.234375 7.3125 0.234375 Z M 7.3125 0.234375 "/></g></g><g style="fill:#ffffff;fill-opacity:1;"><g transform="translate(210.18981, 253.842171)"><path style="stroke:none" d="M 12.75 -14.515625 L 5.875 -14.515625 L 5.875 -10.734375 L 11.765625 -10.734375 L 11.765625 -7.265625 L 5.875 -7.265625 L 5.875 -3.484375 L 12.75 -3.484375 L 12.75 0 L 1.921875 0 L 1.921875 -18 L 12.75 -18 Z M 12.75 -14.515625 "/></g></g><g style="fill:#ffffff;fill-opacity:1;"><g transform="translate(224.169797, 253.842171)"><path style="stroke:none" d="M 12.78125 0 L 11.671875 -3.390625 L 4.953125 -3.390625 L 3.84375 0 L -0.390625 0 L 6.09375 -18 L 10.53125 -18 L 17.015625 0 Z M 6 -6.6875 L 10.625 -6.6875 L 8.3125 -13.828125 Z M 6 -6.6875 "/></g></g><g style="fill:#ffffff;fill-opacity:1;"><g transform="translate(240.789775, 253.842171)"><path style="stroke:none" d="M 11.15625 -7.40625 L 16.203125 0 L 11.765625 0 L 7.3125 -6.953125 L 5.734375 -6.953125 L 5.734375 0 L 1.765625 0 L 1.765625 -18 L 9.421875 -18 C 10.460938 -18 11.378906 -17.753906 12.171875 -17.265625 C 12.972656 -16.773438 13.609375 -16.109375 14.078125 -15.265625 C 14.554688 -14.429688 14.796875 -13.503906 14.796875 -12.484375 C 14.796875 -11.265625 14.453125 -10.191406 13.765625 -9.265625 C 13.085938 -8.347656 12.21875 -7.726562 11.15625 -7.40625 Z M 8.8125 -10.234375 C 9.457031 -10.234375 9.984375 -10.429688 10.390625 -10.828125 C 10.804688 -11.234375 11.015625 -11.742188 11.015625 -12.359375 C 11.015625 -12.984375 10.804688 -13.492188 10.390625 -13.890625 C 9.984375 -14.285156 9.457031 -14.484375 8.8125 -14.484375 L 5.734375 -14.484375 L 5.734375 -10.234375 Z M 8.8125 -10.234375 "/></g></g><g style="fill:#ffffff;fill-opacity:1;"><g transform="translate(256.839759, 253.842171)"><path style="stroke:none" d="M 10.34375 0.234375 C 9.070312 0.234375 7.878906 -0.00390625 6.765625 -0.484375 C 5.648438 -0.960938 4.664062 -1.625 3.8125 -2.46875 C 2.96875 -3.320312 2.304688 -4.300781 1.828125 -5.40625 C 1.347656 -6.519531 1.109375 -7.71875 1.109375 -9 C 1.109375 -10.28125 1.347656 -11.472656 1.828125 -12.578125 C 2.304688 -13.691406 2.96875 -14.671875 3.8125 -15.515625 C 4.664062 -16.367188 5.648438 -17.035156 6.765625 -17.515625 C 7.878906 -17.992188 9.070312 -18.234375 10.34375 -18.234375 C 12.125 -18.234375 13.742188 -17.78125 15.203125 -16.875 C 16.671875 -15.96875 17.785156 -14.773438 18.546875 -13.296875 L 15.125 -11.515625 C 14.675781 -12.378906 14.03125 -13.070312 13.1875 -13.59375 C 12.351562 -14.113281 11.40625 -14.375 10.34375 -14.375 C 9.34375 -14.375 8.4375 -14.132812 7.625 -13.65625 C 6.820312 -13.1875 6.1875 -12.546875 5.71875 -11.734375 C 5.25 -10.929688 5.015625 -10.019531 5.015625 -9 C 5.015625 -7.976562 5.25 -7.0625 5.71875 -6.25 C 6.1875 -5.445312 6.820312 -4.804688 7.625 -4.328125 C 8.4375 -3.859375 9.34375 -3.625 10.34375 -3.625 C 11.40625 -3.625 12.351562 -3.882812 13.1875 -4.40625 C 14.03125 -4.925781 14.675781 -5.617188 15.125 -6.484375 L 18.546875 -4.703125 C 17.785156 -3.242188 16.671875 -2.054688 15.203125 -1.140625 C 13.742188 -0.222656 12.125 0.234375 10.34375 0.234375 Z M 10.34375 0.234375 "/></g></g><g style="fill:#ffffff;fill-opacity:1;"><g transform="translate(276.159742, 253.842171)"><path style="stroke:none" d="M 13.046875 -18 L 16.984375 -18 L 16.984375 0 L 13.046875 0 L 13.046875 -7.265625 L 5.734375 -7.265625 L 5.734375 0 L 1.765625 0 L 1.765625 -18 L 5.734375 -18 L 5.734375 -10.765625 L 13.046875 -10.765625 Z M 13.046875 -18 "/></g></g></g></svg>