<svg xmlns="http://www.w3.org/2000/svg" xmlns:xlink="http://www.w3.org/1999/xlink" width="1280" zoomAndPan="magnify" viewBox="0 0 960 540.000001" height="720" preserveAspectRatio="xMidYMid meet" version="1.2"><defs><clipPath id="9c29ec9645"><path d="M 0.886719 0 L 959.113281 0 L 959.113281 539 L 0.886719 539 Z M 0.886719 0 "/></clipPath><clipPath id="b8203611d9"><path d="M 795 95.472656 L 827 95.472656 L 827 127 L 795 127 Z M 795 95.472656 "/></clipPath><clipPath id="891035b9c7"><path d="M 784 435 L 943.667969 435 L 943.667969 437.589844 L 784 437.589844 Z M 784 435 "/></clipPath><clipPath id="150c1e1ccc"><path d="M 575.351562 127 L 631 127 L 631 199 L 575.351562 199 Z M 575.351562 127 "/></clipPath><clipPath id="d8fc91dcb6"><path d="M 47 351 L 76 351 L 76 371.621094 L 47 371.621094 Z M 47 351 "/></clipPath><clipPath id="f862db7ec6"><path d="M 46 337.929688 L 78.0625 337.929688 L 78.0625 360 L 46 360 Z M 46 337.929688 "/></clipPath></defs><g id="b9bce3f5c5"><g clip-rule="nonzero" clip-path="url(#9c29ec9645)"><path style=" stroke:none;fill-rule:nonzero;fill:#ffffff;fill-opacity:1;" d="M 0.886719 0 L 959.113281 0 L 959.113281 539 L 0.886719 539 Z M 0.886719 0 "/><path style=" stroke:none;fill-rule:nonzero;fill:#ffffff;fill-opacity:1;" d="M 0.886719 0 L 959.113281 0 L 959.113281 539 L 0.886719 539 Z M 0.886719 0 "/></g><g style="fill:#000000;fill-opacity:1;"><g transform="translate(81.455714, 371.301832)"><path style="stroke:none" d="M 3.734375 0 L 3.734375 -15.046875 L 0.953125 -15.046875 L 0.953125 -17.453125 C 1.816406 -17.453125 2.550781 -17.585938 3.15625 -17.859375 C 3.757812 -18.140625 4.148438 -18.710938 4.328125 -19.578125 L 6.46875 -19.578125 L 6.46875 0 Z M 3.734375 0 "/></g></g><g style="fill:#000000;fill-opacity:1;"><g transform="translate(90.38451, 371.301832)"><path style="stroke:none" d="M 3.734375 0 L 3.734375 -15.046875 L 0.953125 -15.046875 L 0.953125 -17.453125 C 1.816406 -17.453125 2.550781 -17.585938 3.15625 -17.859375 C 3.757812 -18.140625 4.148438 -18.710938 4.328125 -19.578125 L 6.46875 -19.578125 L 6.46875 0 Z M 3.734375 0 "/></g></g><g style="fill:#000000;fill-opacity:1;"><g transform="translate(99.313306, 371.301832)"><path style="stroke:none" d="M 6.296875 -9.046875 C 5.304688 -9.046875 4.398438 -9.257812 3.578125 -9.6875 C 2.753906 -10.113281 2.097656 -10.738281 1.609375 -11.5625 C 1.128906 -12.394531 0.890625 -13.414062 0.890625 -14.625 C 0.890625 -15.59375 1.035156 -16.425781 1.328125 -17.125 C 1.628906 -17.832031 2.035156 -18.410156 2.546875 -18.859375 C 3.066406 -19.316406 3.648438 -19.65625 4.296875 -19.875 C 4.953125 -20.09375 5.625 -20.203125 6.3125 -20.203125 C 7.300781 -20.203125 8.207031 -19.992188 9.03125 -19.578125 C 9.851562 -19.160156 10.5 -18.535156 10.96875 -17.703125 C 11.445312 -16.878906 11.6875 -15.84375 11.6875 -14.59375 C 11.6875 -13.289062 11.425781 -12.234375 10.90625 -11.421875 C 10.382812 -10.609375 9.710938 -10.007812 8.890625 -9.625 C 8.066406 -9.238281 7.203125 -9.046875 6.296875 -9.046875 Z M 6.40625 -11.28125 C 6.863281 -11.28125 7.316406 -11.382812 7.765625 -11.59375 C 8.222656 -11.8125 8.59375 -12.160156 8.875 -12.640625 C 9.164062 -13.128906 9.3125 -13.765625 9.3125 -14.546875 C 9.3125 -15.410156 9.15625 -16.085938 8.84375 -16.578125 C 8.53125 -17.078125 8.128906 -17.4375 7.640625 -17.65625 C 7.148438 -17.875 6.671875 -17.984375 6.203125 -17.984375 C 5.722656 -17.984375 5.253906 -17.875 4.796875 -17.65625 C 4.347656 -17.4375 3.976562 -17.082031 3.6875 -16.59375 C 3.40625 -16.113281 3.265625 -15.488281 3.265625 -14.71875 C 3.265625 -13.90625 3.421875 -13.242188 3.734375 -12.734375 C 4.054688 -12.234375 4.457031 -11.863281 4.9375 -11.625 C 5.425781 -11.394531 5.914062 -11.28125 6.40625 -11.28125 Z M 21.25 0.71875 C 20.257812 0.71875 19.351562 0.507812 18.53125 0.09375 C 17.707031 -0.320312 17.054688 -0.953125 16.578125 -1.796875 C 16.109375 -2.640625 15.875 -3.660156 15.875 -4.859375 C 15.875 -5.828125 16.019531 -6.660156 16.3125 -7.359375 C 16.613281 -8.066406 17.015625 -8.644531 17.515625 -9.09375 C 18.023438 -9.539062 18.601562 -9.875 19.25 -10.09375 C 19.90625 -10.320312 20.582031 -10.4375 21.28125 -10.4375 C 22.28125 -10.4375 23.1875 -10.222656 24 -9.796875 C 24.8125 -9.378906 25.457031 -8.757812 25.9375 -7.9375 C 26.425781 -7.113281 26.671875 -6.082031 26.671875 -4.84375 C 26.671875 -3.53125 26.410156 -2.460938 25.890625 -1.640625 C 25.367188 -0.828125 24.695312 -0.234375 23.875 0.140625 C 23.050781 0.523438 22.175781 0.71875 21.25 0.71875 Z M 21.359375 -1.515625 C 21.835938 -1.515625 22.296875 -1.625 22.734375 -1.84375 C 23.179688 -2.0625 23.550781 -2.40625 23.84375 -2.875 C 24.144531 -3.351562 24.296875 -3.988281 24.296875 -4.78125 C 24.296875 -5.625 24.132812 -6.296875 23.8125 -6.796875 C 23.488281 -7.304688 23.085938 -7.671875 22.609375 -7.890625 C 22.128906 -8.109375 21.65625 -8.21875 21.1875 -8.21875 C 20.6875 -8.21875 20.210938 -8.101562 19.765625 -7.875 C 19.328125 -7.644531 18.960938 -7.289062 18.671875 -6.8125 C 18.390625 -6.34375 18.25 -5.722656 18.25 -4.953125 C 18.25 -4.140625 18.398438 -3.476562 18.703125 -2.96875 C 19.015625 -2.457031 19.410156 -2.085938 19.890625 -1.859375 C 20.378906 -1.628906 20.867188 -1.515625 21.359375 -1.515625 Z M 6.203125 0 L 18.21875 -19.578125 L 20.984375 -19.578125 L 8.953125 0 Z M 6.203125 0 "/></g></g><g style="fill:#000000;fill-opacity:1;"><g transform="translate(126.870938, 371.301832)"><path style="stroke:none" d=""/></g></g><g style="fill:#000000;fill-opacity:1;"><g transform="translate(134.286881, 371.301832)"><path style="stroke:none" d="M 7.0625 0.296875 C 6.363281 0.296875 5.753906 0.203125 5.234375 0.015625 C 4.710938 -0.171875 4.269531 -0.457031 3.90625 -0.84375 C 3.550781 -1.226562 3.285156 -1.710938 3.109375 -2.296875 C 2.929688 -2.878906 2.84375 -3.578125 2.84375 -4.390625 L 2.84375 -13.078125 L 0.59375 -13.078125 L 0.625 -15.3125 L 1.984375 -15.3125 C 2.503906 -15.332031 2.875 -15.429688 3.09375 -15.609375 C 3.320312 -15.785156 3.46875 -16.101562 3.53125 -16.5625 L 3.796875 -18.78125 L 5.484375 -18.78125 L 5.484375 -15.34375 L 9.84375 -15.34375 L 9.84375 -13.03125 L 5.484375 -13.03125 L 5.484375 -4.453125 C 5.484375 -3.617188 5.675781 -3.035156 6.0625 -2.703125 C 6.445312 -2.378906 6.957031 -2.21875 7.59375 -2.21875 C 7.96875 -2.21875 8.351562 -2.265625 8.75 -2.359375 C 9.144531 -2.460938 9.539062 -2.65625 9.9375 -2.9375 L 9.9375 -0.234375 C 9.382812 -0.0351562 8.863281 0.0976562 8.375 0.171875 C 7.894531 0.253906 7.457031 0.296875 7.0625 0.296875 Z M 7.0625 0.296875 "/></g></g><g style="fill:#000000;fill-opacity:1;"><g transform="translate(145.203143, 371.301832)"><path style="stroke:none" d="M 2.25 0 L 2.25 -20.71875 L 5.046875 -20.71875 L 5.046875 -16 C 5.046875 -15.582031 5.03125 -15.140625 5 -14.671875 C 4.96875 -14.203125 4.925781 -13.722656 4.875 -13.234375 C 4.832031 -12.753906 4.773438 -12.269531 4.703125 -11.78125 C 4.628906 -11.300781 4.566406 -10.816406 4.515625 -10.328125 L 4.984375 -10.328125 C 5.265625 -11.535156 5.628906 -12.539062 6.078125 -13.34375 C 6.535156 -14.144531 7.113281 -14.738281 7.8125 -15.125 C 8.519531 -15.519531 9.347656 -15.71875 10.296875 -15.71875 C 11.328125 -15.71875 12.164062 -15.53125 12.8125 -15.15625 C 13.46875 -14.78125 13.972656 -14.285156 14.328125 -13.671875 C 14.679688 -13.066406 14.941406 -12.421875 15.109375 -11.734375 C 15.285156 -11.054688 15.390625 -10.398438 15.421875 -9.765625 C 15.460938 -9.128906 15.484375 -8.59375 15.484375 -8.15625 L 15.484375 0 L 12.765625 0 L 12.765625 -7.71875 C 12.765625 -8.363281 12.726562 -9.015625 12.65625 -9.671875 C 12.582031 -10.328125 12.441406 -10.925781 12.234375 -11.46875 C 12.023438 -12.007812 11.703125 -12.453125 11.265625 -12.796875 C 10.835938 -13.148438 10.25 -13.328125 9.5 -13.328125 C 8.582031 -13.328125 7.804688 -13.046875 7.171875 -12.484375 C 6.546875 -11.929688 6.050781 -11.1875 5.6875 -10.25 C 5.320312 -9.3125 5.078125 -8.226562 4.953125 -7 L 4.953125 0 Z M 2.25 0 "/></g></g><g style="fill:#000000;fill-opacity:1;"><g transform="translate(162.704763, 371.301832)"><path style="stroke:none" d="M 5.84375 0.390625 C 4.988281 0.390625 4.222656 0.234375 3.546875 -0.078125 C 2.878906 -0.398438 2.347656 -0.878906 1.953125 -1.515625 C 1.554688 -2.148438 1.359375 -2.941406 1.359375 -3.890625 C 1.359375 -4.921875 1.578125 -5.738281 2.015625 -6.34375 C 2.453125 -6.957031 3.015625 -7.4375 3.703125 -7.78125 C 4.398438 -8.132812 5.15625 -8.390625 5.96875 -8.546875 C 6.789062 -8.703125 7.597656 -8.835938 8.390625 -8.953125 C 9.203125 -9.078125 9.84375 -9.191406 10.3125 -9.296875 C 10.78125 -9.410156 11.113281 -9.570312 11.3125 -9.78125 C 11.507812 -9.988281 11.609375 -10.300781 11.609375 -10.71875 C 11.609375 -11.25 11.488281 -11.722656 11.25 -12.140625 C 11.007812 -12.554688 10.660156 -12.878906 10.203125 -13.109375 C 9.753906 -13.347656 9.160156 -13.46875 8.421875 -13.46875 C 7.828125 -13.46875 7.234375 -13.367188 6.640625 -13.171875 C 6.046875 -12.972656 5.53125 -12.632812 5.09375 -12.15625 C 4.664062 -11.6875 4.382812 -11.035156 4.25 -10.203125 L 1.78125 -11.015625 C 1.9375 -11.765625 2.195312 -12.425781 2.5625 -13 C 2.925781 -13.570312 3.390625 -14.066406 3.953125 -14.484375 C 4.523438 -14.898438 5.1875 -15.207031 5.9375 -15.40625 C 6.6875 -15.613281 7.503906 -15.71875 8.390625 -15.71875 C 9.617188 -15.71875 10.617188 -15.546875 11.390625 -15.203125 C 12.160156 -14.859375 12.753906 -14.382812 13.171875 -13.78125 C 13.585938 -13.175781 13.875 -12.507812 14.03125 -11.78125 C 14.1875 -11.050781 14.265625 -10.304688 14.265625 -9.546875 L 14.265625 -6.265625 C 14.265625 -5.628906 14.28125 -4.945312 14.3125 -4.21875 C 14.34375 -3.5 14.382812 -2.773438 14.4375 -2.046875 C 14.488281 -1.316406 14.539062 -0.632812 14.59375 0 L 12.109375 0 C 12.066406 -0.65625 12.023438 -1.304688 11.984375 -1.953125 C 11.941406 -2.609375 11.910156 -3.273438 11.890625 -3.953125 L 11.515625 -3.953125 C 11.234375 -3.179688 10.84375 -2.46875 10.34375 -1.8125 C 9.851562 -1.15625 9.234375 -0.625 8.484375 -0.21875 C 7.734375 0.1875 6.851562 0.390625 5.84375 0.390625 Z M 6.609375 -1.8125 C 7.066406 -1.8125 7.523438 -1.882812 7.984375 -2.03125 C 8.441406 -2.175781 8.894531 -2.410156 9.34375 -2.734375 C 9.800781 -3.066406 10.222656 -3.488281 10.609375 -4 C 10.992188 -4.519531 11.332031 -5.144531 11.625 -5.875 L 11.625 -8.640625 L 12.4375 -8.515625 C 12.113281 -8.203125 11.691406 -7.957031 11.171875 -7.78125 C 10.648438 -7.613281 10.070312 -7.484375 9.4375 -7.390625 C 8.800781 -7.304688 8.164062 -7.203125 7.53125 -7.078125 C 6.90625 -6.960938 6.328125 -6.804688 5.796875 -6.609375 C 5.273438 -6.410156 4.847656 -6.117188 4.515625 -5.734375 C 4.191406 -5.347656 4.03125 -4.832031 4.03125 -4.1875 C 4.03125 -3.414062 4.265625 -2.828125 4.734375 -2.421875 C 5.210938 -2.015625 5.835938 -1.8125 6.609375 -1.8125 Z M 6.609375 -1.8125 "/></g></g><g style="fill:#000000;fill-opacity:1;"><g transform="translate(179.10882, 371.301832)"><path style="stroke:none" d="M 2.25 0 L 2.25 -15.34375 L 4.71875 -15.34375 L 4.421875 -10.296875 L 4.890625 -10.296875 C 5.171875 -11.578125 5.550781 -12.617188 6.03125 -13.421875 C 6.519531 -14.222656 7.125 -14.804688 7.84375 -15.171875 C 8.570312 -15.535156 9.390625 -15.71875 10.296875 -15.71875 C 11.171875 -15.71875 11.90625 -15.570312 12.5 -15.28125 C 13.101562 -14.988281 13.597656 -14.59375 13.984375 -14.09375 C 14.367188 -13.601562 14.671875 -13.039062 14.890625 -12.40625 C 15.109375 -11.769531 15.257812 -11.101562 15.34375 -10.40625 C 15.4375 -9.71875 15.484375 -9.039062 15.484375 -8.375 L 15.484375 0 L 12.765625 0 L 12.765625 -7.984375 C 12.765625 -8.421875 12.738281 -8.9375 12.6875 -9.53125 C 12.632812 -10.125 12.507812 -10.707031 12.3125 -11.28125 C 12.113281 -11.851562 11.796875 -12.335938 11.359375 -12.734375 C 10.929688 -13.128906 10.328125 -13.328125 9.546875 -13.328125 C 8.597656 -13.328125 7.789062 -13.023438 7.125 -12.421875 C 6.46875 -11.816406 5.957031 -11.015625 5.59375 -10.015625 C 5.226562 -9.015625 5.015625 -7.921875 4.953125 -6.734375 L 4.953125 0 Z M 2.25 0 "/></g></g><g style="fill:#000000;fill-opacity:1;"><g transform="translate(196.61044, 371.301832)"><path style="stroke:none" d=""/></g></g><g style="fill:#000000;fill-opacity:1;"><g transform="translate(204.026383, 371.301832)"><path style="stroke:none" d="M 2.25 0 L 2.25 -20.71875 L 4.953125 -20.71875 L 4.953125 0 Z M 2.25 0 "/></g></g><g style="fill:#000000;fill-opacity:1;"><g transform="translate(211.205002, 371.301832)"><path style="stroke:none" d="M 5.84375 0.390625 C 4.988281 0.390625 4.222656 0.234375 3.546875 -0.078125 C 2.878906 -0.398438 2.347656 -0.878906 1.953125 -1.515625 C 1.554688 -2.148438 1.359375 -2.941406 1.359375 -3.890625 C 1.359375 -4.921875 1.578125 -5.738281 2.015625 -6.34375 C 2.453125 -6.957031 3.015625 -7.4375 3.703125 -7.78125 C 4.398438 -8.132812 5.15625 -8.390625 5.96875 -8.546875 C 6.789062 -8.703125 7.597656 -8.835938 8.390625 -8.953125 C 9.203125 -9.078125 9.84375 -9.191406 10.3125 -9.296875 C 10.78125 -9.410156 11.113281 -9.570312 11.3125 -9.78125 C 11.507812 -9.988281 11.609375 -10.300781 11.609375 -10.71875 C 11.609375 -11.25 11.488281 -11.722656 11.25 -12.140625 C 11.007812 -12.554688 10.660156 -12.878906 10.203125 -13.109375 C 9.753906 -13.347656 9.160156 -13.46875 8.421875 -13.46875 C 7.828125 -13.46875 7.234375 -13.367188 6.640625 -13.171875 C 6.046875 -12.972656 5.53125 -12.632812 5.09375 -12.15625 C 4.664062 -11.6875 4.382812 -11.035156 4.25 -10.203125 L 1.78125 -11.015625 C 1.9375 -11.765625 2.195312 -12.425781 2.5625 -13 C 2.925781 -13.570312 3.390625 -14.066406 3.953125 -14.484375 C 4.523438 -14.898438 5.1875 -15.207031 5.9375 -15.40625 C 6.6875 -15.613281 7.503906 -15.71875 8.390625 -15.71875 C 9.617188 -15.71875 10.617188 -15.546875 11.390625 -15.203125 C 12.160156 -14.859375 12.753906 -14.382812 13.171875 -13.78125 C 13.585938 -13.175781 13.875 -12.507812 14.03125 -11.78125 C 14.1875 -11.050781 14.265625 -10.304688 14.265625 -9.546875 L 14.265625 -6.265625 C 14.265625 -5.628906 14.28125 -4.945312 14.3125 -4.21875 C 14.34375 -3.5 14.382812 -2.773438 14.4375 -2.046875 C 14.488281 -1.316406 14.539062 -0.632812 14.59375 0 L 12.109375 0 C 12.066406 -0.65625 12.023438 -1.304688 11.984375 -1.953125 C 11.941406 -2.609375 11.910156 -3.273438 11.890625 -3.953125 L 11.515625 -3.953125 C 11.234375 -3.179688 10.84375 -2.46875 10.34375 -1.8125 C 9.851562 -1.15625 9.234375 -0.625 8.484375 -0.21875 C 7.734375 0.1875 6.851562 0.390625 5.84375 0.390625 Z M 6.609375 -1.8125 C 7.066406 -1.8125 7.523438 -1.882812 7.984375 -2.03125 C 8.441406 -2.175781 8.894531 -2.410156 9.34375 -2.734375 C 9.800781 -3.066406 10.222656 -3.488281 10.609375 -4 C 10.992188 -4.519531 11.332031 -5.144531 11.625 -5.875 L 11.625 -8.640625 L 12.4375 -8.515625 C 12.113281 -8.203125 11.691406 -7.957031 11.171875 -7.78125 C 10.648438 -7.613281 10.070312 -7.484375 9.4375 -7.390625 C 8.800781 -7.304688 8.164062 -7.203125 7.53125 -7.078125 C 6.90625 -6.960938 6.328125 -6.804688 5.796875 -6.609375 C 5.273438 -6.410156 4.847656 -6.117188 4.515625 -5.734375 C 4.191406 -5.347656 4.03125 -4.832031 4.03125 -4.1875 C 4.03125 -3.414062 4.265625 -2.828125 4.734375 -2.421875 C 5.210938 -2.015625 5.835938 -1.8125 6.609375 -1.8125 Z M 6.609375 -1.8125 "/></g></g><g style="fill:#000000;fill-opacity:1;"><g transform="translate(227.60906, 371.301832)"><path style="stroke:none" d="M 7.984375 0.390625 C 6.910156 0.390625 5.960938 0.273438 5.140625 0.046875 C 4.328125 -0.179688 3.632812 -0.507812 3.0625 -0.9375 C 2.5 -1.363281 2.066406 -1.875 1.765625 -2.46875 C 1.472656 -3.070312 1.328125 -3.753906 1.328125 -4.515625 L 3.625 -5.078125 C 3.601562 -4.378906 3.769531 -3.785156 4.125 -3.296875 C 4.476562 -2.816406 4.992188 -2.445312 5.671875 -2.1875 C 6.359375 -1.9375 7.175781 -1.8125 8.125 -1.8125 C 9.3125 -1.8125 10.226562 -2.007812 10.875 -2.40625 C 11.519531 -2.800781 11.84375 -3.34375 11.84375 -4.03125 C 11.84375 -4.582031 11.660156 -5.007812 11.296875 -5.3125 C 10.941406 -5.625 10.445312 -5.867188 9.8125 -6.046875 C 9.1875 -6.222656 8.457031 -6.40625 7.625 -6.59375 C 6.894531 -6.75 6.171875 -6.925781 5.453125 -7.125 C 4.742188 -7.320312 4.097656 -7.582031 3.515625 -7.90625 C 2.929688 -8.226562 2.460938 -8.648438 2.109375 -9.171875 C 1.753906 -9.703125 1.578125 -10.375 1.578125 -11.1875 C 1.578125 -12.113281 1.820312 -12.910156 2.3125 -13.578125 C 2.8125 -14.253906 3.515625 -14.78125 4.421875 -15.15625 C 5.328125 -15.53125 6.414062 -15.71875 7.6875 -15.71875 C 8.925781 -15.71875 9.992188 -15.523438 10.890625 -15.140625 C 11.796875 -14.753906 12.503906 -14.210938 13.015625 -13.515625 C 13.535156 -12.816406 13.828125 -11.984375 13.890625 -11.015625 L 11.546875 -10.4375 C 11.523438 -11.113281 11.347656 -11.679688 11.015625 -12.140625 C 10.691406 -12.609375 10.234375 -12.957031 9.640625 -13.1875 C 9.046875 -13.414062 8.351562 -13.53125 7.5625 -13.53125 C 6.519531 -13.53125 5.695312 -13.332031 5.09375 -12.9375 C 4.488281 -12.539062 4.1875 -12 4.1875 -11.3125 C 4.1875 -10.769531 4.367188 -10.335938 4.734375 -10.015625 C 5.097656 -9.703125 5.59375 -9.460938 6.21875 -9.296875 C 6.84375 -9.128906 7.550781 -8.957031 8.34375 -8.78125 C 9.113281 -8.625 9.859375 -8.445312 10.578125 -8.25 C 11.296875 -8.050781 11.941406 -7.789062 12.515625 -7.46875 C 13.085938 -7.15625 13.539062 -6.738281 13.875 -6.21875 C 14.21875 -5.695312 14.390625 -5.019531 14.390625 -4.1875 C 14.390625 -3.195312 14.117188 -2.359375 13.578125 -1.671875 C 13.046875 -0.992188 12.304688 -0.476562 11.359375 -0.125 C 10.410156 0.21875 9.285156 0.390625 7.984375 0.390625 Z M 7.984375 0.390625 "/></g></g><g style="fill:#000000;fill-opacity:1;"><g transform="translate(243.182523, 371.301832)"><path style="stroke:none" d="M 7.0625 0.296875 C 6.363281 0.296875 5.753906 0.203125 5.234375 0.015625 C 4.710938 -0.171875 4.269531 -0.457031 3.90625 -0.84375 C 3.550781 -1.226562 3.285156 -1.710938 3.109375 -2.296875 C 2.929688 -2.878906 2.84375 -3.578125 2.84375 -4.390625 L 2.84375 -13.078125 L 0.59375 -13.078125 L 0.625 -15.3125 L 1.984375 -15.3125 C 2.503906 -15.332031 2.875 -15.429688 3.09375 -15.609375 C 3.320312 -15.785156 3.46875 -16.101562 3.53125 -16.5625 L 3.796875 -18.78125 L 5.484375 -18.78125 L 5.484375 -15.34375 L 9.84375 -15.34375 L 9.84375 -13.03125 L 5.484375 -13.03125 L 5.484375 -4.453125 C 5.484375 -3.617188 5.675781 -3.035156 6.0625 -2.703125 C 6.445312 -2.378906 6.957031 -2.21875 7.59375 -2.21875 C 7.96875 -2.21875 8.351562 -2.265625 8.75 -2.359375 C 9.144531 -2.460938 9.539062 -2.65625 9.9375 -2.9375 L 9.9375 -0.234375 C 9.382812 -0.0351562 8.863281 0.0976562 8.375 0.171875 C 7.894531 0.253906 7.457031 0.296875 7.0625 0.296875 Z M 7.0625 0.296875 "/></g></g><g style="fill:#000000;fill-opacity:1;"><g transform="translate(254.098784, 371.301832)"><path style="stroke:none" d=""/></g></g><g style="fill:#000000;fill-opacity:1;"><g transform="translate(261.514727, 371.301832)"><path style="stroke:none" d="M 7.75 5.109375 C 6.957031 5.109375 6.171875 5.015625 5.390625 4.828125 C 4.609375 4.640625 3.894531 4.359375 3.25 3.984375 C 2.601562 3.617188 2.0625 3.140625 1.625 2.546875 L 3 0.5625 C 3.445312 1.238281 4.085938 1.753906 4.921875 2.109375 C 5.753906 2.460938 6.65625 2.640625 7.625 2.640625 C 8.550781 2.640625 9.332031 2.476562 9.96875 2.15625 C 10.601562 1.84375 11.125 1.390625 11.53125 0.796875 C 11.9375 0.203125 12.234375 -0.515625 12.421875 -1.359375 C 12.609375 -2.210938 12.703125 -3.175781 12.703125 -4.25 L 13 -7.234375 L 12.484375 -7.234375 C 12.273438 -5.796875 11.929688 -4.640625 11.453125 -3.765625 C 10.972656 -2.898438 10.390625 -2.273438 9.703125 -1.890625 C 9.023438 -1.503906 8.242188 -1.3125 7.359375 -1.3125 C 6.347656 -1.3125 5.519531 -1.507812 4.875 -1.90625 C 4.238281 -2.3125 3.734375 -2.820312 3.359375 -3.4375 C 2.992188 -4.050781 2.734375 -4.703125 2.578125 -5.390625 C 2.421875 -6.085938 2.320312 -6.734375 2.28125 -7.328125 C 2.238281 -7.921875 2.21875 -8.382812 2.21875 -8.71875 L 2.21875 -15.34375 L 4.921875 -15.34375 L 4.921875 -9.46875 C 4.921875 -9.125 4.925781 -8.707031 4.9375 -8.21875 C 4.945312 -7.738281 5.003906 -7.238281 5.109375 -6.71875 C 5.222656 -6.195312 5.394531 -5.707031 5.625 -5.25 C 5.851562 -4.789062 6.171875 -4.414062 6.578125 -4.125 C 6.992188 -3.84375 7.53125 -3.703125 8.1875 -3.703125 C 8.84375 -3.703125 9.410156 -3.875 9.890625 -4.21875 C 10.378906 -4.570312 10.789062 -5.0625 11.125 -5.6875 C 11.457031 -6.320312 11.710938 -7.066406 11.890625 -7.921875 C 12.078125 -8.773438 12.195312 -9.707031 12.25 -10.71875 L 12.25 -15.34375 L 14.953125 -15.34375 L 14.953125 -4.09375 C 14.953125 -3.320312 14.910156 -2.5625 14.828125 -1.8125 C 14.753906 -1.0625 14.613281 -0.34375 14.40625 0.34375 C 14.195312 1.039062 13.914062 1.675781 13.5625 2.25 C 13.207031 2.820312 12.757812 3.320312 12.21875 3.75 C 11.6875 4.175781 11.054688 4.507812 10.328125 4.75 C 9.597656 4.988281 8.738281 5.109375 7.75 5.109375 Z M 7.75 5.109375 "/></g></g><g style="fill:#000000;fill-opacity:1;"><g transform="translate(278.719727, 371.301832)"><path style="stroke:none" d="M 8.90625 0.390625 C 7.675781 0.390625 6.597656 0.207031 5.671875 -0.15625 C 4.753906 -0.53125 3.984375 -1.0625 3.359375 -1.75 C 2.742188 -2.445312 2.269531 -3.273438 1.9375 -4.234375 C 1.613281 -5.191406 1.453125 -6.253906 1.453125 -7.421875 C 1.453125 -8.628906 1.609375 -9.734375 1.921875 -10.734375 C 2.242188 -11.742188 2.710938 -12.617188 3.328125 -13.359375 C 3.941406 -14.109375 4.691406 -14.6875 5.578125 -15.09375 C 6.460938 -15.507812 7.484375 -15.71875 8.640625 -15.71875 C 9.660156 -15.71875 10.582031 -15.546875 11.40625 -15.203125 C 12.226562 -14.859375 12.929688 -14.335938 13.515625 -13.640625 C 14.097656 -12.953125 14.535156 -12.082031 14.828125 -11.03125 C 15.128906 -9.988281 15.25 -8.753906 15.1875 -7.328125 L 3.171875 -7.234375 L 3.171875 -9.078125 L 13.5 -9.171875 L 12.609375 -7.921875 C 12.710938 -9.148438 12.597656 -10.164062 12.265625 -10.96875 C 11.941406 -11.78125 11.46875 -12.394531 10.84375 -12.8125 C 10.21875 -13.226562 9.484375 -13.4375 8.640625 -13.4375 C 7.722656 -13.4375 6.921875 -13.195312 6.234375 -12.71875 C 5.554688 -12.25 5.03125 -11.566406 4.65625 -10.671875 C 4.28125 -9.785156 4.09375 -8.710938 4.09375 -7.453125 C 4.09375 -5.628906 4.503906 -4.238281 5.328125 -3.28125 C 6.148438 -2.320312 7.351562 -1.84375 8.9375 -1.84375 C 9.5625 -1.84375 10.109375 -1.921875 10.578125 -2.078125 C 11.046875 -2.234375 11.441406 -2.441406 11.765625 -2.703125 C 12.085938 -2.972656 12.351562 -3.289062 12.5625 -3.65625 C 12.769531 -4.03125 12.925781 -4.425781 13.03125 -4.84375 L 15.421875 -4.328125 C 15.242188 -3.597656 14.976562 -2.941406 14.625 -2.359375 C 14.269531 -1.773438 13.820312 -1.28125 13.28125 -0.875 C 12.738281 -0.46875 12.097656 -0.15625 11.359375 0.0625 C 10.628906 0.28125 9.8125 0.390625 8.90625 0.390625 Z M 8.90625 0.390625 "/></g></g><g style="fill:#000000;fill-opacity:1;"><g transform="translate(295.450128, 371.301832)"><path style="stroke:none" d="M 5.84375 0.390625 C 4.988281 0.390625 4.222656 0.234375 3.546875 -0.078125 C 2.878906 -0.398438 2.347656 -0.878906 1.953125 -1.515625 C 1.554688 -2.148438 1.359375 -2.941406 1.359375 -3.890625 C 1.359375 -4.921875 1.578125 -5.738281 2.015625 -6.34375 C 2.453125 -6.957031 3.015625 -7.4375 3.703125 -7.78125 C 4.398438 -8.132812 5.15625 -8.390625 5.96875 -8.546875 C 6.789062 -8.703125 7.597656 -8.835938 8.390625 -8.953125 C 9.203125 -9.078125 9.84375 -9.191406 10.3125 -9.296875 C 10.78125 -9.410156 11.113281 -9.570312 11.3125 -9.78125 C 11.507812 -9.988281 11.609375 -10.300781 11.609375 -10.71875 C 11.609375 -11.25 11.488281 -11.722656 11.25 -12.140625 C 11.007812 -12.554688 10.660156 -12.878906 10.203125 -13.109375 C 9.753906 -13.347656 9.160156 -13.46875 8.421875 -13.46875 C 7.828125 -13.46875 7.234375 -13.367188 6.640625 -13.171875 C 6.046875 -12.972656 5.53125 -12.632812 5.09375 -12.15625 C 4.664062 -11.6875 4.382812 -11.035156 4.25 -10.203125 L 1.78125 -11.015625 C 1.9375 -11.765625 2.195312 -12.425781 2.5625 -13 C 2.925781 -13.570312 3.390625 -14.066406 3.953125 -14.484375 C 4.523438 -14.898438 5.1875 -15.207031 5.9375 -15.40625 C 6.6875 -15.613281 7.503906 -15.71875 8.390625 -15.71875 C 9.617188 -15.71875 10.617188 -15.546875 11.390625 -15.203125 C 12.160156 -14.859375 12.753906 -14.382812 13.171875 -13.78125 C 13.585938 -13.175781 13.875 -12.507812 14.03125 -11.78125 C 14.1875 -11.050781 14.265625 -10.304688 14.265625 -9.546875 L 14.265625 -6.265625 C 14.265625 -5.628906 14.28125 -4.945312 14.3125 -4.21875 C 14.34375 -3.5 14.382812 -2.773438 14.4375 -2.046875 C 14.488281 -1.316406 14.539062 -0.632812 14.59375 0 L 12.109375 0 C 12.066406 -0.65625 12.023438 -1.304688 11.984375 -1.953125 C 11.941406 -2.609375 11.910156 -3.273438 11.890625 -3.953125 L 11.515625 -3.953125 C 11.234375 -3.179688 10.84375 -2.46875 10.34375 -1.8125 C 9.851562 -1.15625 9.234375 -0.625 8.484375 -0.21875 C 7.734375 0.1875 6.851562 0.390625 5.84375 0.390625 Z M 6.609375 -1.8125 C 7.066406 -1.8125 7.523438 -1.882812 7.984375 -2.03125 C 8.441406 -2.175781 8.894531 -2.410156 9.34375 -2.734375 C 9.800781 -3.066406 10.222656 -3.488281 10.609375 -4 C 10.992188 -4.519531 11.332031 -5.144531 11.625 -5.875 L 11.625 -8.640625 L 12.4375 -8.515625 C 12.113281 -8.203125 11.691406 -7.957031 11.171875 -7.78125 C 10.648438 -7.613281 10.070312 -7.484375 9.4375 -7.390625 C 8.800781 -7.304688 8.164062 -7.203125 7.53125 -7.078125 C 6.90625 -6.960938 6.328125 -6.804688 5.796875 -6.609375 C 5.273438 -6.410156 4.847656 -6.117188 4.515625 -5.734375 C 4.191406 -5.347656 4.03125 -4.832031 4.03125 -4.1875 C 4.03125 -3.414062 4.265625 -2.828125 4.734375 -2.421875 C 5.210938 -2.015625 5.835938 -1.8125 6.609375 -1.8125 Z M 6.609375 -1.8125 "/></g></g><g style="fill:#000000;fill-opacity:1;"><g transform="translate(311.854174, 371.301832)"><path style="stroke:none" d="M 2.25 0 L 2.25 -15.34375 L 4.71875 -15.34375 L 4.453125 -9.84375 L 4.921875 -9.84375 C 5.097656 -11.050781 5.375 -12.085938 5.75 -12.953125 C 6.125 -13.828125 6.628906 -14.503906 7.265625 -14.984375 C 7.898438 -15.472656 8.660156 -15.71875 9.546875 -15.71875 C 9.765625 -15.71875 10.003906 -15.695312 10.265625 -15.65625 C 10.523438 -15.625 10.820312 -15.554688 11.15625 -15.453125 L 11.015625 -12.609375 C 10.710938 -12.722656 10.410156 -12.8125 10.109375 -12.875 C 9.816406 -12.9375 9.53125 -12.96875 9.25 -12.96875 C 8.476562 -12.96875 7.8125 -12.707031 7.25 -12.1875 C 6.6875 -11.675781 6.222656 -10.988281 5.859375 -10.125 C 5.492188 -9.269531 5.191406 -8.289062 4.953125 -7.1875 L 4.953125 0 Z M 2.25 0 "/></g></g><path style=" stroke:none;fill-rule:nonzero;fill:#4570ea;fill-opacity:1;" d="M 838.699219 259.3125 C 838.871094 259.8125 839.019531 260.320312 839.140625 260.832031 C 839.265625 261.347656 839.359375 261.867188 839.433594 262.390625 C 839.503906 262.914062 839.546875 263.441406 839.566406 263.96875 C 839.589844 264.496094 839.582031 265.023438 839.550781 265.554688 C 839.515625 266.082031 839.457031 266.605469 839.375 267.128906 C 839.292969 267.648438 839.183594 268.167969 839.046875 268.679688 C 838.914062 269.1875 838.753906 269.691406 838.570312 270.1875 C 838.386719 270.683594 838.175781 271.167969 837.945312 271.644531 C 837.714844 272.121094 837.460938 272.582031 837.183594 273.03125 C 836.90625 273.484375 836.605469 273.917969 836.285156 274.339844 C 835.964844 274.761719 835.625 275.164062 835.265625 275.550781 C 834.90625 275.941406 834.527344 276.308594 834.132812 276.660156 C 833.738281 277.007812 833.324219 277.339844 832.894531 277.648438 C 832.46875 277.960938 832.023438 278.246094 831.566406 278.515625 C 831.113281 278.78125 830.644531 279.023438 830.164062 279.242188 C 829.679688 279.464844 829.191406 279.660156 828.691406 279.832031 C 828.191406 280.003906 827.683594 280.152344 827.167969 280.273438 C 826.65625 280.398438 826.136719 280.492188 825.613281 280.566406 C 825.089844 280.636719 824.5625 280.679688 824.035156 280.699219 C 823.503906 280.722656 822.976562 280.714844 822.449219 280.683594 C 821.921875 280.648438 821.398438 280.59375 820.875 280.507812 C 820.351562 280.425781 819.835938 280.316406 819.324219 280.179688 C 818.8125 280.046875 818.308594 279.886719 817.816406 279.703125 C 817.320312 279.519531 816.832031 279.308594 816.359375 279.078125 C 815.882812 278.847656 815.421875 278.59375 814.96875 278.316406 C 814.519531 278.039062 814.085938 277.738281 813.664062 277.417969 C 813.242188 277.097656 812.839844 276.757812 812.449219 276.398438 C 812.0625 276.039062 811.695312 275.660156 811.34375 275.265625 C 810.992188 274.871094 810.664062 274.457031 810.355469 274.027344 C 810.042969 273.601562 809.753906 273.15625 809.488281 272.699219 C 809.222656 272.242188 808.980469 271.773438 808.757812 271.292969 C 808.539062 270.8125 808.34375 270.324219 808.171875 269.824219 C 808 269.324219 807.851562 268.816406 807.730469 268.300781 C 807.605469 267.789062 807.511719 267.269531 807.4375 266.746094 C 807.367188 266.21875 807.320312 265.695312 807.300781 265.167969 C 807.28125 264.636719 807.289062 264.109375 807.320312 263.582031 C 807.355469 263.054688 807.410156 262.527344 807.496094 262.007812 C 807.578125 261.484375 807.6875 260.96875 807.824219 260.457031 C 807.957031 259.945312 808.117188 259.441406 808.300781 258.945312 C 808.484375 258.449219 808.691406 257.964844 808.925781 257.488281 C 809.15625 257.015625 809.410156 256.550781 809.6875 256.101562 C 809.964844 255.652344 810.265625 255.214844 810.585938 254.796875 C 810.90625 254.375 811.246094 253.96875 811.605469 253.582031 C 811.964844 253.195312 812.34375 252.824219 812.738281 252.476562 C 813.132812 252.125 813.546875 251.796875 813.972656 251.484375 C 814.402344 251.175781 814.84375 250.886719 815.300781 250.621094 C 815.757812 250.355469 816.226562 250.109375 816.707031 249.890625 C 817.1875 249.671875 817.679688 249.472656 818.179688 249.300781 C 818.679688 249.128906 819.1875 248.984375 819.699219 248.859375 C 820.214844 248.738281 820.734375 248.640625 821.257812 248.570312 C 821.78125 248.5 822.308594 248.453125 822.835938 248.433594 C 823.363281 248.414062 823.894531 248.421875 824.421875 248.453125 C 824.949219 248.484375 825.472656 248.542969 825.996094 248.628906 C 826.519531 248.710938 827.035156 248.820312 827.546875 248.953125 C 828.058594 249.089844 828.558594 249.25 829.054688 249.433594 C 829.550781 249.617188 830.039062 249.824219 830.511719 250.054688 C 830.988281 250.289062 831.449219 250.542969 831.902344 250.820312 C 832.351562 251.097656 832.785156 251.394531 833.207031 251.714844 C 833.628906 252.035156 834.03125 252.375 834.417969 252.734375 C 834.808594 253.09375 835.175781 253.472656 835.527344 253.871094 C 835.875 254.265625 836.207031 254.679688 836.515625 255.105469 C 836.828125 255.535156 837.113281 255.976562 837.382812 256.433594 C 837.648438 256.890625 837.890625 257.359375 838.109375 257.839844 C 838.332031 258.320312 838.527344 258.8125 838.699219 259.3125 Z M 838.699219 259.3125 "/><path style=" stroke:none;fill-rule:nonzero;fill:#ffffff;fill-opacity:1;" d="M 824.089844 273.230469 C 823.523438 273.425781 822.992188 273.355469 822.496094 273.019531 L 816.421875 268.898438 C 816.222656 268.765625 816.058594 268.597656 815.925781 268.398438 C 815.796875 268.199219 815.707031 267.984375 815.664062 267.75 C 815.617188 267.515625 815.621094 267.285156 815.667969 267.050781 C 815.714844 266.816406 815.808594 266.601562 815.941406 266.402344 C 816.074219 266.207031 816.242188 266.042969 816.441406 265.910156 C 816.636719 265.78125 816.855469 265.691406 817.089844 265.648438 C 817.324219 265.601562 817.554688 265.605469 817.789062 265.652344 C 818.023438 265.699219 818.238281 265.792969 818.433594 265.925781 L 822.410156 268.621094 L 825.796875 255.714844 C 825.859375 255.484375 825.960938 255.277344 826.105469 255.085938 C 826.25 254.898438 826.421875 254.746094 826.628906 254.625 C 826.832031 254.507812 827.054688 254.433594 827.289062 254.398438 C 827.523438 254.367188 827.757812 254.382812 827.984375 254.441406 C 828.214844 254.503906 828.425781 254.605469 828.613281 254.746094 C 828.800781 254.890625 828.957031 255.0625 829.078125 255.269531 C 829.199219 255.472656 829.273438 255.691406 829.308594 255.925781 C 829.339844 256.160156 829.328125 256.394531 829.269531 256.625 L 825.242188 271.988281 C 825.085938 272.585938 824.714844 272.996094 824.136719 273.210938 Z M 824.089844 273.230469 "/><path style=" stroke:none;fill-rule:nonzero;fill:#ed9da0;fill-opacity:1;" d="M 834.226562 415.007812 L 843.992188 415.007812 L 843.992188 427.882812 L 834.226562 427.882812 Z M 834.226562 415.007812 "/><path style=" stroke:none;fill-rule:nonzero;fill:#090814;fill-opacity:1;" d="M 842.324219 436.765625 L 821.566406 436.765625 C 819.757812 436.765625 818.039062 436.371094 816.410156 435.59375 L 812.582031 433.753906 C 812.148438 433.546875 811.816406 433.234375 811.578125 432.816406 C 811.34375 432.398438 811.246094 431.953125 811.289062 431.476562 C 811.332031 431 811.503906 430.578125 811.8125 430.210938 C 812.117188 429.839844 812.503906 429.59375 812.964844 429.464844 L 820.859375 427.28125 L 834.367188 420.179688 L 834.378906 420.230469 C 834.628906 421.511719 835.023438 423.445312 835.070312 423.5625 C 836.457031 425.148438 837.878906 425.878906 839.300781 425.734375 C 841.78125 425.484375 843.429688 422.621094 843.445312 422.59375 L 843.457031 422.570312 L 843.484375 422.574219 C 844.023438 422.59375 844.449219 422.828125 844.757812 423.269531 C 845.324219 424.121094 844.980469 425.433594 844.921875 425.632812 C 845.601562 426.296875 845.902344 429.996094 845.925781 430.296875 C 846.90625 431.332031 847.371094 432.332031 847.308594 433.261719 C 847.199219 434.210938 846.753906 434.957031 845.96875 435.507812 C 844.902344 436.355469 843.6875 436.777344 842.324219 436.769531 Z M 842.324219 436.765625 "/><path style=" stroke:none;fill-rule:nonzero;fill:#ed9da0;fill-opacity:1;" d="M 899.03125 411.867188 L 908.410156 409.140625 L 912.003906 421.5 L 902.628906 424.226562 Z M 899.03125 411.867188 "/><path style=" stroke:none;fill-rule:nonzero;fill:#090814;fill-opacity:1;" d="M 912.882812 430.496094 L 892.949219 436.296875 C 891.214844 436.796875 889.453125 436.902344 887.667969 436.605469 L 883.480469 435.910156 C 883.007812 435.832031 882.601562 435.625 882.257812 435.289062 C 881.914062 434.957031 881.699219 434.554688 881.605469 434.085938 C 881.511719 433.613281 881.5625 433.160156 881.753906 432.722656 C 881.945312 432.285156 882.246094 431.9375 882.652344 431.6875 L 889.625 427.382812 L 900.613281 416.792969 L 900.636719 416.835938 C 901.234375 417.996094 902.152344 419.742188 902.234375 419.839844 C 904.007812 420.976562 905.578125 421.28125 906.902344 420.746094 C 909.210938 419.8125 909.996094 416.605469 910.003906 416.570312 L 910.007812 416.546875 L 910.03125 416.542969 C 910.558594 416.414062 911.03125 416.515625 911.453125 416.855469 C 912.234375 417.515625 912.269531 418.871094 912.269531 419.078125 C 913.105469 419.527344 914.429688 422.996094 914.539062 423.273438 C 915.769531 424 916.492188 424.824219 916.695312 425.738281 C 916.851562 426.679688 916.632812 427.519531 916.035156 428.265625 C 915.246094 429.378906 914.199219 430.121094 912.886719 430.496094 Z M 912.882812 430.496094 "/><path style=" stroke:none;fill-rule:nonzero;fill:#ed9da0;fill-opacity:1;" d="M 880.59375 183.660156 C 880.59375 182.6875 880.503906 181.71875 880.328125 180.761719 C 880.148438 179.800781 879.886719 178.867188 879.535156 177.957031 C 879.183594 177.046875 878.753906 176.179688 878.242188 175.347656 C 877.734375 174.519531 877.152344 173.742188 876.496094 173.019531 C 875.84375 172.292969 875.128906 171.636719 874.355469 171.046875 C 873.582031 170.453125 872.757812 169.9375 871.886719 169.496094 C 871.019531 169.058594 870.117188 168.699219 869.179688 168.425781 C 868.246094 168.152344 867.292969 167.964844 866.324219 167.867188 C 865.351562 167.769531 864.382812 167.757812 863.410156 167.839844 C 862.441406 167.917969 861.484375 168.089844 860.542969 168.34375 C 859.601562 168.601562 858.695312 168.941406 857.816406 169.363281 C 856.9375 169.789062 856.105469 170.289062 855.320312 170.863281 C 854.535156 171.441406 853.808594 172.085938 853.140625 172.796875 C 852.472656 173.507812 851.878906 174.273438 851.351562 175.09375 C 850.824219 175.914062 850.378906 176.777344 850.011719 177.679688 C 849.644531 178.582031 849.359375 179.511719 849.164062 180.464844 C 848.96875 181.421875 848.859375 182.386719 848.84375 183.359375 C 848.824219 184.335938 848.894531 185.304688 849.054688 186.265625 C 849.214844 187.226562 849.460938 188.164062 849.792969 189.082031 C 850.125 189.996094 850.539062 190.875 851.03125 191.714844 C 851.527344 192.554688 852.09375 193.34375 852.734375 194.082031 C 853.371094 194.816406 854.074219 195.488281 854.835938 196.09375 C 855.601562 196.699219 856.410156 197.230469 857.273438 197.6875 C 858.132812 198.144531 859.03125 198.519531 859.960938 198.8125 L 863.027344 219.101562 L 878.675781 206.058594 C 876.53125 203.238281 874.800781 200.183594 873.480469 196.898438 C 874.574219 196.175781 875.5625 195.328125 876.445312 194.359375 C 877.332031 193.390625 878.082031 192.328125 878.703125 191.175781 C 879.324219 190.019531 879.792969 188.804688 880.113281 187.535156 C 880.433594 186.261719 880.59375 184.972656 880.589844 183.660156 Z M 880.59375 183.660156 "/><path style=" stroke:none;fill-rule:nonzero;fill:#e6e6e6;fill-opacity:1;" d="M 886.859375 262.03125 L 889.152344 229.941406 C 889.355469 227.128906 889.007812 224.386719 888.117188 221.714844 L 881.324219 201.339844 L 861.320312 207.765625 L 852.875 227.078125 L 848.277344 235.507812 C 848.027344 235.972656 847.8125 236.453125 847.636719 236.953125 C 847.460938 237.453125 847.324219 237.960938 847.230469 238.480469 C 847.136719 239 847.085938 239.527344 847.078125 240.054688 C 847.066406 240.582031 847.101562 241.109375 847.175781 241.632812 C 847.25 242.15625 847.367188 242.667969 847.527344 243.171875 C 847.683594 243.679688 847.882812 244.167969 848.117188 244.640625 C 848.355469 245.113281 848.628906 245.5625 848.9375 245.992188 C 849.246094 246.421875 849.589844 246.820312 849.960938 247.195312 L 852.875 250.109375 L 848.8125 265.011719 L 849.242188 264.996094 L 848.664062 265.070312 C 848.664062 265.070312 821.503906 346.792969 822.476562 416.292969 L 857.34375 416.292969 L 859.414062 335.617188 L 865.46875 419.425781 L 911.414062 416.78125 L 886.863281 262.03125 Z M 886.859375 262.03125 "/><path style=" stroke:none;fill-rule:nonzero;fill:#090814;fill-opacity:1;" d="M 885.691406 204.523438 C 885.691406 204.523438 884.953125 210.148438 878.082031 210.332031 L 864.148438 210.703125 C 864.148438 210.703125 875.925781 182.035156 871.082031 185.265625 C 866.238281 188.496094 853.324219 174.957031 853.324219 174.957031 L 849.511719 182.105469 C 849.511719 182.105469 840.410156 178.808594 850.496094 170.734375 C 850.496094 170.734375 862.539062 161.425781 875.320312 167.015625 C 888.101562 172.605469 885.691406 204.523438 885.691406 204.523438 Z M 885.691406 204.523438 "/><path style=" stroke:none;fill-rule:nonzero;fill:#ed9da0;fill-opacity:1;" d="M 829.34375 268.355469 C 829.15625 264.773438 832.515625 261.6875 836.84375 261.464844 C 837.984375 261.382812 839.09375 261.527344 840.175781 261.894531 C 841.257812 262.261719 842.226562 262.824219 843.082031 263.578125 L 843.179688 263.574219 L 868.835938 260.917969 L 866.910156 235.453125 C 866.199219 230.527344 867.582031 225.5625 872.433594 224.445312 C 872.78125 224.367188 873.136719 224.304688 873.492188 224.265625 C 873.851562 224.222656 874.207031 224.203125 874.566406 224.203125 C 874.925781 224.203125 875.285156 224.222656 875.644531 224.261719 C 876 224.300781 876.355469 224.363281 876.703125 224.441406 C 877.054688 224.523438 877.398438 224.621094 877.738281 224.738281 C 878.078125 224.859375 878.410156 224.996094 878.734375 225.152344 C 879.058594 225.308594 879.371094 225.480469 879.675781 225.671875 C 879.980469 225.867188 880.269531 226.074219 880.550781 226.296875 C 880.832031 226.523438 881.101562 226.761719 881.355469 227.015625 C 881.605469 227.269531 881.847656 227.539062 882.070312 227.820312 C 882.292969 228.101562 882.5 228.394531 882.691406 228.699219 C 882.878906 229.003906 883.054688 229.320312 883.207031 229.644531 C 883.363281 229.96875 883.5 230.300781 883.617188 230.640625 C 883.734375 230.980469 883.832031 231.324219 883.910156 231.675781 C 883.988281 232.027344 884.046875 232.378906 884.085938 232.738281 C 884.125 233.09375 884.144531 233.453125 884.144531 233.8125 L 883.996094 265.890625 C 883.992188 266.429688 883.9375 266.96875 883.828125 267.5 C 883.722656 268.03125 883.5625 268.546875 883.351562 269.042969 C 883.144531 269.542969 882.886719 270.019531 882.582031 270.46875 C 882.28125 270.917969 881.933594 271.332031 881.550781 271.710938 C 881.164062 272.09375 880.746094 272.433594 880.292969 272.730469 C 879.84375 273.03125 879.363281 273.28125 878.863281 273.488281 C 878.359375 273.691406 877.84375 273.84375 877.3125 273.945312 C 876.78125 274.050781 876.242188 274.097656 875.699219 274.09375 L 843.5 271.6875 C 842.726562 272.53125 841.824219 273.1875 840.785156 273.664062 C 839.746094 274.140625 838.65625 274.398438 837.515625 274.4375 C 833.183594 274.660156 829.527344 271.9375 829.339844 268.355469 Z M 829.34375 268.355469 "/><path style=" stroke:none;fill-rule:nonzero;fill:#e6e6e6;fill-opacity:1;" d="M 864.445312 224.210938 L 865.988281 253.261719 L 887.460938 251.804688 L 883.664062 221.589844 "/><path style=" stroke:none;fill-rule:nonzero;fill:#3f3d56;fill-opacity:1;" d="M 720.171875 156.027344 L 719.066406 156.027344 L 719.066406 113.503906 L 798.90625 113.503906 L 798.90625 114.609375 L 720.171875 114.609375 Z M 720.171875 156.027344 "/><g clip-rule="nonzero" clip-path="url(#b8203611d9)"><path style=" stroke:none;fill-rule:nonzero;fill:#4570ea;fill-opacity:1;" d="M 826.484375 110.84375 C 826.484375 111.851562 826.386719 112.847656 826.1875 113.835938 C 825.992188 114.824219 825.703125 115.78125 825.316406 116.714844 C 824.929688 117.644531 824.457031 118.527344 823.898438 119.363281 C 823.339844 120.199219 822.703125 120.976562 821.992188 121.6875 C 821.28125 122.398438 820.507812 123.035156 819.667969 123.59375 C 818.832031 124.152344 817.949219 124.625 817.019531 125.011719 C 816.085938 125.398438 815.128906 125.6875 814.140625 125.882812 C 813.152344 126.082031 812.15625 126.179688 811.152344 126.179688 C 810.144531 126.179688 809.148438 126.082031 808.160156 125.882812 C 807.171875 125.6875 806.214844 125.398438 805.28125 125.011719 C 804.351562 124.625 803.46875 124.152344 802.632812 123.59375 C 801.796875 123.035156 801.019531 122.398438 800.308594 121.6875 C 799.597656 120.976562 798.960938 120.199219 798.402344 119.363281 C 797.84375 118.527344 797.371094 117.644531 796.984375 116.714844 C 796.601562 115.78125 796.308594 114.824219 796.113281 113.835938 C 795.917969 112.847656 795.816406 111.851562 795.816406 110.84375 C 795.816406 109.839844 795.917969 108.839844 796.113281 107.855469 C 796.308594 106.867188 796.601562 105.90625 796.984375 104.976562 C 797.371094 104.046875 797.84375 103.164062 798.402344 102.328125 C 798.960938 101.488281 799.597656 100.714844 800.308594 100.003906 C 801.019531 99.289062 801.796875 98.65625 802.632812 98.097656 C 803.46875 97.535156 804.351562 97.0625 805.28125 96.679688 C 806.214844 96.292969 807.171875 96.003906 808.160156 95.804688 C 809.148438 95.609375 810.144531 95.511719 811.152344 95.511719 C 812.15625 95.511719 813.152344 95.609375 814.140625 95.804688 C 815.128906 96.003906 816.085938 96.292969 817.019531 96.679688 C 817.949219 97.0625 818.832031 97.535156 819.667969 98.097656 C 820.507812 98.65625 821.28125 99.289062 821.992188 100.003906 C 822.703125 100.714844 823.339844 101.488281 823.898438 102.328125 C 824.457031 103.164062 824.929688 104.046875 825.316406 104.976562 C 825.703125 105.90625 825.992188 106.867188 826.1875 107.855469 C 826.386719 108.839844 826.484375 109.839844 826.484375 110.84375 Z M 826.484375 110.84375 "/></g><path style=" stroke:none;fill-rule:nonzero;fill:#ffffff;fill-opacity:1;" d="M 809.058594 118.824219 C 808.488281 118.824219 808.035156 118.597656 807.691406 118.144531 L 803.507812 112.566406 C 803.367188 112.386719 803.265625 112.183594 803.207031 111.964844 C 803.148438 111.742188 803.132812 111.519531 803.164062 111.289062 C 803.191406 111.0625 803.265625 110.851562 803.382812 110.652344 C 803.496094 110.457031 803.644531 110.289062 803.828125 110.152344 C 804.011719 110.011719 804.214844 109.917969 804.4375 109.859375 C 804.660156 109.804688 804.882812 109.792969 805.109375 109.828125 C 805.335938 109.863281 805.546875 109.941406 805.742188 110.0625 C 805.9375 110.179688 806.105469 110.332031 806.238281 110.519531 L 808.972656 114.167969 L 816.003906 103.625 C 816.128906 103.433594 816.28125 103.273438 816.472656 103.144531 C 816.660156 103.015625 816.867188 102.929688 817.089844 102.882812 C 817.3125 102.835938 817.535156 102.835938 817.761719 102.878906 C 817.984375 102.921875 818.191406 103.007812 818.378906 103.132812 C 818.570312 103.261719 818.726562 103.417969 818.855469 103.609375 C 818.980469 103.796875 819.066406 104.003906 819.109375 104.230469 C 819.152344 104.453125 819.152344 104.675781 819.105469 104.898438 C 819.058594 105.125 818.96875 105.328125 818.839844 105.515625 L 810.472656 118.066406 C 810.148438 118.554688 809.691406 118.808594 809.101562 118.824219 Z M 809.058594 118.824219 "/><path style=" stroke:none;fill-rule:nonzero;fill:#3f3d56;fill-opacity:1;" d="M 703.421875 259.269531 L 704.527344 259.269531 L 704.527344 301.792969 L 624.6875 301.792969 L 624.6875 300.691406 L 703.421875 300.691406 Z M 703.421875 259.269531 "/><path style=" stroke:none;fill-rule:nonzero;fill:#4570ea;fill-opacity:1;" d="M 624.6875 301.792969 C 624.6875 302.800781 624.585938 303.796875 624.390625 304.785156 C 624.195312 305.773438 623.902344 306.730469 623.519531 307.660156 C 623.132812 308.589844 622.660156 309.476562 622.101562 310.3125 C 621.542969 311.148438 620.90625 311.921875 620.195312 312.636719 C 619.484375 313.347656 618.707031 313.984375 617.871094 314.542969 C 617.035156 315.101562 616.152344 315.574219 615.21875 315.960938 C 614.289062 316.34375 613.332031 316.636719 612.34375 316.832031 C 611.355469 317.027344 610.359375 317.125 609.351562 317.125 C 608.347656 317.125 607.347656 317.027344 606.363281 316.832031 C 605.375 316.636719 604.414062 316.34375 603.484375 315.960938 C 602.554688 315.574219 601.671875 315.101562 600.835938 314.542969 C 599.996094 313.984375 599.222656 313.347656 598.511719 312.636719 C 597.800781 311.921875 597.164062 311.148438 596.605469 310.3125 C 596.046875 309.476562 595.574219 308.589844 595.1875 307.660156 C 594.800781 306.730469 594.511719 305.773438 594.316406 304.785156 C 594.117188 303.796875 594.019531 302.800781 594.019531 301.792969 C 594.019531 300.785156 594.117188 299.789062 594.316406 298.800781 C 594.511719 297.816406 594.800781 296.855469 595.1875 295.925781 C 595.574219 294.996094 596.046875 294.113281 596.605469 293.273438 C 597.164062 292.4375 597.800781 291.664062 598.511719 290.949219 C 599.222656 290.238281 599.996094 289.605469 600.835938 289.042969 C 601.671875 288.484375 602.554688 288.011719 603.484375 287.628906 C 604.414062 287.242188 605.375 286.949219 606.363281 286.753906 C 607.347656 286.558594 608.347656 286.460938 609.351562 286.460938 C 610.359375 286.460938 611.355469 286.558594 612.34375 286.753906 C 613.332031 286.949219 614.289062 287.242188 615.21875 287.628906 C 616.152344 288.011719 617.035156 288.484375 617.871094 289.042969 C 618.707031 289.605469 619.484375 290.238281 620.195312 290.949219 C 620.90625 291.664062 621.542969 292.4375 622.101562 293.273438 C 622.660156 294.113281 623.132812 294.996094 623.519531 295.925781 C 623.902344 296.855469 624.195312 297.816406 624.390625 298.800781 C 624.585938 299.789062 624.6875 300.785156 624.6875 301.792969 Z M 624.6875 301.792969 "/><path style=" stroke:none;fill-rule:nonzero;fill:#ffffff;fill-opacity:1;" d="M 607.257812 309.773438 C 606.691406 309.773438 606.234375 309.546875 605.894531 309.089844 L 601.710938 303.515625 C 601.570312 303.332031 601.46875 303.132812 601.410156 302.910156 C 601.347656 302.691406 601.335938 302.464844 601.363281 302.238281 C 601.394531 302.011719 601.46875 301.800781 601.582031 301.601562 C 601.699219 301.40625 601.847656 301.238281 602.03125 301.097656 C 602.214844 300.960938 602.417969 300.867188 602.640625 300.808594 C 602.863281 300.753906 603.085938 300.742188 603.3125 300.777344 C 603.539062 300.8125 603.75 300.890625 603.945312 301.007812 C 604.140625 301.128906 604.304688 301.28125 604.441406 301.46875 L 607.175781 305.117188 L 614.207031 294.574219 C 614.328125 294.382812 614.484375 294.222656 614.675781 294.09375 C 614.863281 293.964844 615.066406 293.875 615.292969 293.828125 C 615.515625 293.785156 615.738281 293.78125 615.960938 293.824219 C 616.1875 293.871094 616.394531 293.953125 616.582031 294.082031 C 616.773438 294.207031 616.929688 294.367188 617.058594 294.554688 C 617.183594 294.746094 617.269531 294.953125 617.3125 295.175781 C 617.355469 295.402344 617.351562 295.625 617.308594 295.847656 C 617.261719 296.070312 617.171875 296.277344 617.042969 296.464844 L 608.675781 309.015625 C 608.347656 309.503906 607.890625 309.757812 607.304688 309.773438 Z M 607.257812 309.773438 "/><g clip-rule="nonzero" clip-path="url(#891035b9c7)"><path style=" stroke:none;fill-rule:nonzero;fill:#e6e6e6;fill-opacity:1;" d="M 942.976562 437.371094 L 785.046875 437.546875 C 784.855469 437.546875 784.695312 437.480469 784.558594 437.34375 C 784.425781 437.210938 784.355469 437.046875 784.355469 436.855469 C 784.355469 436.664062 784.425781 436.5 784.558594 436.367188 C 784.695312 436.230469 784.855469 436.164062 785.046875 436.164062 L 942.976562 435.984375 C 943.167969 435.984375 943.332031 436.054688 943.464844 436.1875 C 943.601562 436.324219 943.667969 436.488281 943.667969 436.675781 C 943.667969 436.867188 943.601562 437.03125 943.464844 437.167969 C 943.332031 437.300781 943.167969 437.371094 942.976562 437.371094 Z M 942.976562 437.371094 "/></g><g clip-rule="nonzero" clip-path="url(#150c1e1ccc)"><path style=" stroke:none;fill-rule:nonzero;fill:#f2f2f2;fill-opacity:1;" d="M 621.507812 180.351562 C 621.507812 178.296875 621.699219 176.257812 622.082031 174.238281 C 622.46875 172.222656 623.039062 170.257812 623.796875 168.34375 C 624.554688 166.433594 625.488281 164.613281 626.59375 162.878906 C 627.695312 161.144531 628.953125 159.53125 630.367188 158.039062 L 610.816406 131.128906 C 610.414062 130.574219 609.957031 130.066406 609.445312 129.613281 C 608.933594 129.15625 608.378906 128.761719 607.78125 128.421875 C 607.1875 128.085938 606.558594 127.816406 605.90625 127.617188 C 605.25 127.414062 604.582031 127.285156 603.898438 127.226562 C 603.21875 127.171875 602.535156 127.1875 601.859375 127.277344 C 601.179688 127.363281 600.515625 127.523438 599.871094 127.757812 C 599.226562 127.988281 598.613281 128.285156 598.035156 128.652344 C 597.453125 129.015625 596.917969 129.4375 596.429688 129.914062 C 593.082031 133.179688 590.089844 136.746094 587.457031 140.609375 C 584.828125 144.476562 582.605469 148.566406 580.792969 152.878906 C 578.984375 157.1875 577.621094 161.636719 576.703125 166.222656 C 575.789062 170.808594 575.335938 175.441406 575.351562 180.117188 C 575.351562 183.65625 575.613281 187.171875 576.140625 190.671875 C 576.347656 192.066406 576.839844 193.355469 577.617188 194.539062 C 578.394531 195.71875 579.382812 196.679688 580.585938 197.421875 C 581.773438 198.15625 583.0625 198.609375 584.449219 198.777344 C 585.839844 198.941406 587.195312 198.808594 588.523438 198.375 L 622.285156 187.40625 C 621.769531 185.082031 621.511719 182.730469 621.507812 180.351562 Z M 621.507812 180.351562 "/></g><path style=" stroke:none;fill-rule:nonzero;fill:#e6e6e6;fill-opacity:1;" d="M 623.304688 191.015625 L 588.207031 202.417969 C 587.558594 202.628906 586.9375 202.90625 586.347656 203.246094 C 585.757812 203.589844 585.210938 203.992188 584.707031 204.453125 C 584.203125 204.914062 583.753906 205.421875 583.359375 205.980469 C 582.964844 206.539062 582.636719 207.128906 582.367188 207.757812 C 582.101562 208.386719 581.90625 209.035156 581.777344 209.707031 C 581.652344 210.378906 581.597656 211.054688 581.613281 211.738281 C 581.632812 212.417969 581.722656 213.089844 581.886719 213.753906 C 582.050781 214.417969 582.28125 215.054688 582.582031 215.667969 C 583.824219 218.195312 585.21875 220.636719 586.757812 222.996094 C 588.292969 225.355469 589.96875 227.613281 591.777344 229.769531 C 593.585938 231.929688 595.519531 233.972656 597.574219 235.898438 C 599.628906 237.824219 601.789062 239.617188 604.0625 241.285156 C 606.332031 242.953125 608.691406 244.476562 611.144531 245.859375 C 613.597656 247.242188 616.125 248.472656 618.726562 249.550781 C 621.328125 250.632812 623.984375 251.550781 626.695312 252.3125 C 629.40625 253.070312 632.15625 253.667969 634.9375 254.097656 C 635.617188 254.203125 636.300781 254.234375 636.988281 254.191406 C 637.671875 254.148438 638.347656 254.03125 639.007812 253.84375 C 639.667969 253.652344 640.300781 253.394531 640.90625 253.070312 C 641.511719 252.746094 642.078125 252.359375 642.597656 251.910156 C 643.121094 251.460938 643.589844 250.964844 644.003906 250.414062 C 644.417969 249.867188 644.769531 249.28125 645.054688 248.65625 C 645.34375 248.03125 645.5625 247.382812 645.707031 246.710938 C 645.855469 246.039062 645.929688 245.359375 645.929688 244.671875 L 645.929688 211.890625 C 644.636719 211.554688 643.367188 211.140625 642.121094 210.648438 C 640.878906 210.15625 639.667969 209.589844 638.496094 208.949219 C 637.320312 208.308594 636.191406 207.597656 635.105469 206.820312 C 634.015625 206.039062 632.984375 205.195312 632 204.289062 C 631.015625 203.382812 630.09375 202.417969 629.226562 201.398438 C 628.363281 200.378906 627.566406 199.308594 626.832031 198.1875 C 626.097656 197.070312 625.4375 195.910156 624.847656 194.710938 C 624.257812 193.511719 623.742188 192.277344 623.304688 191.015625 Z M 623.304688 191.015625 "/><path style=" stroke:none;fill-rule:nonzero;fill:#3f3d56;fill-opacity:1;" d="M 728.851562 211.496094 C 728.25 210.074219 727.382812 208.839844 726.246094 207.792969 C 725.109375 206.75 723.804688 205.988281 722.335938 205.511719 L 684.058594 193.074219 C 683.5 194.382812 682.863281 195.648438 682.140625 196.871094 C 681.417969 198.097656 680.621094 199.269531 679.746094 200.390625 C 678.867188 201.507812 677.925781 202.566406 676.910156 203.5625 C 675.898438 204.558594 674.824219 205.484375 673.6875 206.339844 C 672.554688 207.199219 671.367188 207.976562 670.128906 208.675781 C 668.894531 209.378906 667.617188 209.996094 666.300781 210.527344 C 664.980469 211.0625 663.636719 211.507812 662.261719 211.863281 C 660.882812 212.222656 659.492188 212.488281 658.082031 212.664062 L 658.082031 252.546875 C 658.082031 252.929688 658.101562 253.308594 658.140625 253.6875 C 658.183594 254.070312 658.246094 254.445312 658.328125 254.816406 C 658.410156 255.191406 658.511719 255.558594 658.632812 255.917969 C 658.753906 256.28125 658.894531 256.636719 659.050781 256.980469 C 659.210938 257.328125 659.390625 257.664062 659.585938 257.992188 C 659.78125 258.320312 659.996094 258.636719 660.222656 258.941406 C 660.453125 259.246094 660.699219 259.539062 660.960938 259.816406 C 661.222656 260.09375 661.496094 260.355469 661.789062 260.605469 C 662.078125 260.855469 662.378906 261.085938 662.695312 261.300781 C 663.007812 261.519531 663.335938 261.714844 663.671875 261.898438 C 664.007812 262.078125 664.351562 262.238281 664.703125 262.382812 C 665.058594 262.527344 665.417969 262.652344 665.785156 262.757812 C 666.152344 262.859375 666.523438 262.945312 666.898438 263.011719 C 667.277344 263.074219 667.65625 263.121094 668.035156 263.144531 C 668.417969 263.167969 668.796875 263.171875 669.179688 263.152344 C 669.558594 263.136719 669.9375 263.097656 670.316406 263.039062 C 673.414062 262.5625 676.472656 261.898438 679.492188 261.050781 C 682.507812 260.207031 685.464844 259.179688 688.363281 257.980469 C 691.257812 256.777344 694.070312 255.410156 696.800781 253.867188 C 699.53125 252.328125 702.160156 250.632812 704.6875 248.777344 C 707.214844 246.921875 709.621094 244.921875 711.910156 242.78125 C 714.195312 240.636719 716.347656 238.363281 718.359375 235.960938 C 720.375 233.558594 722.238281 231.042969 723.949219 228.417969 C 725.664062 225.792969 727.210938 223.074219 728.597656 220.261719 C 729.273438 218.890625 729.636719 217.4375 729.679688 215.90625 C 729.722656 214.378906 729.449219 212.90625 728.851562 211.496094 Z M 728.851562 211.496094 "/><path style=" stroke:none;fill-rule:nonzero;fill:#4570ea;fill-opacity:1;" d="M 719.339844 120.015625 C 719.070312 119.75 718.785156 119.5 718.484375 119.261719 C 718.1875 119.027344 717.875 118.808594 717.554688 118.605469 C 717.230469 118.40625 716.898438 118.222656 716.558594 118.054688 C 716.214844 117.890625 715.867188 117.742188 715.507812 117.613281 C 715.152344 117.484375 714.789062 117.375 714.417969 117.285156 C 714.046875 117.195312 713.675781 117.125 713.296875 117.078125 C 712.921875 117.027344 712.542969 116.996094 712.164062 116.988281 C 711.78125 116.980469 711.402344 116.992188 711.023438 117.023438 C 710.644531 117.054688 710.269531 117.109375 709.898438 117.179688 C 709.523438 117.253906 709.15625 117.34375 708.792969 117.457031 C 708.429688 117.566406 708.074219 117.699219 707.722656 117.847656 C 707.375 118 707.035156 118.167969 706.703125 118.355469 C 706.371094 118.542969 706.050781 118.746094 705.742188 118.96875 C 705.433594 119.1875 705.136719 119.425781 704.851562 119.679688 C 704.570312 119.929688 704.300781 120.199219 704.042969 120.480469 C 703.789062 120.761719 703.550781 121.058594 703.328125 121.363281 L 677.15625 157.386719 C 678.664062 158.894531 680.007812 160.535156 681.1875 162.308594 C 682.371094 164.085938 683.367188 165.957031 684.179688 167.925781 C 684.992188 169.898438 685.605469 171.925781 686.019531 174.019531 C 686.433594 176.109375 686.636719 178.222656 686.636719 180.351562 C 686.636719 181.144531 686.597656 181.929688 686.542969 182.707031 L 728.140625 196.226562 C 728.507812 196.34375 728.878906 196.441406 729.257812 196.519531 C 729.636719 196.597656 730.015625 196.65625 730.398438 196.691406 C 730.78125 196.726562 731.167969 196.742188 731.550781 196.738281 C 731.9375 196.734375 732.320312 196.707031 732.703125 196.660156 C 733.085938 196.613281 733.464844 196.546875 733.839844 196.457031 C 734.214844 196.371094 734.585938 196.261719 734.949219 196.132812 C 735.3125 196.003906 735.667969 195.859375 736.011719 195.691406 C 736.359375 195.523438 736.699219 195.339844 737.023438 195.136719 C 737.351562 194.933594 737.667969 194.710938 737.96875 194.472656 C 738.273438 194.234375 738.5625 193.980469 738.839844 193.710938 C 739.113281 193.445312 739.375 193.160156 739.621094 192.863281 C 739.863281 192.566406 740.09375 192.253906 740.304688 191.933594 C 740.515625 191.609375 740.707031 191.277344 740.882812 190.933594 C 741.058594 190.589844 741.214844 190.238281 741.351562 189.878906 C 741.488281 189.519531 741.601562 189.152344 741.699219 188.78125 C 741.796875 188.40625 741.875 188.03125 741.929688 187.648438 C 742.515625 183.753906 742.804688 179.839844 742.804688 175.902344 C 742.8125 173.304688 742.691406 170.714844 742.441406 168.128906 C 742.1875 165.546875 741.808594 162.980469 741.300781 160.433594 C 740.792969 157.886719 740.15625 155.375 739.394531 152.890625 C 738.632812 150.410156 737.75 147.96875 736.746094 145.574219 C 735.742188 143.183594 734.617188 140.84375 733.378906 138.5625 C 732.140625 136.28125 730.789062 134.066406 729.328125 131.921875 C 727.867188 129.773438 726.300781 127.707031 724.632812 125.71875 C 722.964844 123.726562 721.199219 121.828125 719.339844 120.015625 Z M 719.339844 120.015625 "/><path style=" stroke:none;fill-rule:nonzero;fill:#e6e6e6;fill-opacity:1;" d="M 654.074219 147.785156 C 656.875 147.785156 659.628906 148.136719 662.339844 148.847656 C 665.046875 149.5625 667.621094 150.605469 670.058594 151.984375 L 686.035156 130 C 686.855469 128.867188 687.40625 127.613281 687.679688 126.238281 C 687.953125 124.863281 687.925781 123.496094 687.597656 122.132812 C 687.28125 120.796875 686.699219 119.589844 685.851562 118.507812 C 685.003906 117.429688 683.96875 116.574219 682.746094 115.949219 C 680.289062 114.699219 677.769531 113.597656 675.179688 112.644531 C 672.59375 111.691406 669.960938 110.894531 667.28125 110.25 C 664.601562 109.605469 661.894531 109.117188 659.15625 108.792969 C 656.417969 108.464844 653.671875 108.300781 650.917969 108.296875 C 648.160156 108.292969 645.414062 108.449219 642.675781 108.769531 C 639.9375 109.085938 637.226562 109.566406 634.546875 110.203125 C 631.863281 110.839844 629.226562 111.628906 626.640625 112.574219 C 624.050781 113.523438 621.527344 114.617188 619.066406 115.859375 C 617.804688 116.496094 616.734375 117.367188 615.859375 118.472656 C 614.980469 119.578125 614.378906 120.816406 614.046875 122.1875 C 613.71875 123.542969 613.691406 124.902344 613.960938 126.265625 C 614.234375 127.632812 614.777344 128.875 615.597656 130 L 633.714844 154.941406 C 636.601562 152.621094 639.789062 150.847656 643.28125 149.621094 C 646.773438 148.394531 650.371094 147.78125 654.074219 147.785156 Z M 654.074219 147.785156 "/><g clip-rule="nonzero" clip-path="url(#d8fc91dcb6)"><path style=" stroke:none;fill-rule:nonzero;fill:#000000;fill-opacity:1;" d="M 47.347656 371.625 L 47.347656 362.136719 L 55.214844 362.136719 L 55.214844 371.625 Z M 65.476562 371.625 L 65.476562 358.054688 L 57.722656 358.054688 L 57.722656 371.625 Z M 75.96875 371.625 L 75.96875 351.960938 L 68.101562 351.960938 L 68.101562 371.625 Z M 75.96875 371.625 "/></g><g clip-rule="nonzero" clip-path="url(#f862db7ec6)"><path style=" stroke:none;fill-rule:nonzero;fill:#000000;fill-opacity:1;" d="M 47.082031 359.253906 C 46.660156 359.097656 45.902344 358.671875 46.136719 357.671875 C 46.300781 356.972656 46.882812 356.445312 47.578125 356.285156 C 50.472656 355.621094 60.855469 352.527344 73.6875 340.460938 L 72.035156 338.738281 L 78.023438 337.933594 L 77.226562 343.570312 L 75.515625 342.1875 C 75.515625 342.1875 64.546875 354.414062 47.570312 359.269531 C 47.40625 359.320312 47.242188 359.3125 47.082031 359.253906 Z M 47.082031 359.253906 "/></g><g style="fill:#000000;fill-opacity:1;"><g transform="translate(28.959805, 169.064761)"><path style="stroke:none" d="M 20.15625 0.75 C 17.382812 0.75 14.90625 0.351562 12.71875 -0.4375 C 10.539062 -1.226562 8.695312 -2.394531 7.1875 -3.9375 C 5.675781 -5.488281 4.523438 -7.398438 3.734375 -9.671875 C 2.941406 -11.941406 2.546875 -14.535156 2.546875 -17.453125 C 2.546875 -20.484375 2.945312 -23.160156 3.75 -25.484375 C 4.5625 -27.804688 5.722656 -29.785156 7.234375 -31.421875 C 8.753906 -33.066406 10.554688 -34.3125 12.640625 -35.15625 C 14.734375 -36 17.078125 -36.421875 19.671875 -36.421875 C 21.691406 -36.421875 23.546875 -36.148438 25.234375 -35.609375 C 26.929688 -35.078125 28.390625 -34.3125 29.609375 -33.3125 C 30.835938 -32.320312 31.796875 -31.113281 32.484375 -29.6875 C 33.171875 -28.269531 33.515625 -26.679688 33.515625 -24.921875 L 26.328125 -23.078125 C 26.328125 -24.628906 26 -25.914062 25.34375 -26.9375 C 24.695312 -27.96875 23.847656 -28.742188 22.796875 -29.265625 C 21.753906 -29.785156 20.625 -30.046875 19.40625 -30.046875 C 18.320312 -30.046875 17.265625 -29.828125 16.234375 -29.390625 C 15.210938 -28.960938 14.273438 -28.269531 13.421875 -27.3125 C 12.578125 -26.363281 11.910156 -25.125 11.421875 -23.59375 C 10.941406 -22.0625 10.703125 -20.175781 10.703125 -17.9375 C 10.703125 -15.0625 11.113281 -12.710938 11.9375 -10.890625 C 12.769531 -9.066406 13.914062 -7.734375 15.375 -6.890625 C 16.832031 -6.046875 18.484375 -5.625 20.328125 -5.625 C 22.265625 -5.625 23.78125 -6.023438 24.875 -6.828125 C 25.976562 -7.640625 26.773438 -8.691406 27.265625 -9.984375 C 27.753906 -11.285156 28.015625 -12.660156 28.046875 -14.109375 L 34.921875 -13.03125 C 34.878906 -11.113281 34.597656 -9.316406 34.078125 -7.640625 C 33.554688 -5.972656 32.707031 -4.503906 31.53125 -3.234375 C 30.363281 -1.972656 28.84375 -0.992188 26.96875 -0.296875 C 25.09375 0.398438 22.820312 0.75 20.15625 0.75 Z M 20.15625 0.75 "/></g></g><g style="fill:#000000;fill-opacity:1;"><g transform="translate(65.49263, 169.064761)"><path style="stroke:none" d="M 16.375 0.75 C 13.53125 0.75 11.023438 0.1875 8.859375 -0.9375 C 6.703125 -2.070312 5.007812 -3.75 3.78125 -5.96875 C 2.5625 -8.1875 1.953125 -10.953125 1.953125 -14.265625 C 1.953125 -17.578125 2.570312 -20.332031 3.8125 -22.53125 C 5.050781 -24.726562 6.75 -26.375 8.90625 -27.46875 C 11.070312 -28.570312 13.546875 -29.125 16.328125 -29.125 C 19.171875 -29.125 21.671875 -28.566406 23.828125 -27.453125 C 25.992188 -26.335938 27.695312 -24.671875 28.9375 -22.453125 C 30.1875 -20.234375 30.8125 -17.46875 30.8125 -14.15625 C 30.8125 -10.769531 30.175781 -7.976562 28.90625 -5.78125 C 27.644531 -3.582031 25.914062 -1.941406 23.71875 -0.859375 C 21.53125 0.210938 19.082031 0.75 16.375 0.75 Z M 16.59375 -5.03125 C 17.457031 -5.03125 18.265625 -5.171875 19.015625 -5.453125 C 19.773438 -5.742188 20.453125 -6.222656 21.046875 -6.890625 C 21.640625 -7.554688 22.109375 -8.457031 22.453125 -9.59375 C 22.796875 -10.726562 22.96875 -12.109375 22.96875 -13.734375 C 22.96875 -15.460938 22.773438 -16.921875 22.390625 -18.109375 C 22.015625 -19.296875 21.507812 -20.257812 20.875 -21 C 20.25 -21.738281 19.519531 -22.269531 18.6875 -22.59375 C 17.863281 -22.914062 17.003906 -23.078125 16.109375 -23.078125 C 15.273438 -23.078125 14.46875 -22.929688 13.6875 -22.640625 C 12.914062 -22.359375 12.242188 -21.882812 11.671875 -21.21875 C 11.097656 -20.550781 10.628906 -19.65625 10.265625 -18.53125 C 9.910156 -17.414062 9.734375 -16.03125 9.734375 -14.375 C 9.734375 -12.644531 9.910156 -11.1875 10.265625 -10 C 10.628906 -8.8125 11.132812 -7.847656 11.78125 -7.109375 C 12.425781 -6.367188 13.160156 -5.835938 13.984375 -5.515625 C 14.816406 -5.191406 15.6875 -5.03125 16.59375 -5.03125 Z M 16.59375 -5.03125 "/></g></g><g style="fill:#000000;fill-opacity:1;"><g transform="translate(98.242462, 169.064761)"><path style="stroke:none" d="M 3.453125 0 L 3.453125 -28.375 L 9.734375 -28.375 L 9.671875 -19.5625 L 10.703125 -19.5625 C 11.171875 -21.757812 11.8125 -23.5625 12.625 -24.96875 C 13.4375 -26.375 14.4375 -27.414062 15.625 -28.09375 C 16.8125 -28.78125 18.195312 -29.125 19.78125 -29.125 C 21.039062 -29.125 22.140625 -28.90625 23.078125 -28.46875 C 24.015625 -28.039062 24.804688 -27.429688 25.453125 -26.640625 C 26.097656 -25.847656 26.609375 -24.859375 26.984375 -23.671875 C 27.367188 -22.484375 27.613281 -21.132812 27.71875 -19.625 L 28.59375 -19.625 C 29.09375 -21.820312 29.789062 -23.617188 30.6875 -25.015625 C 31.59375 -26.421875 32.691406 -27.457031 33.984375 -28.125 C 35.285156 -28.789062 36.710938 -29.125 38.265625 -29.125 C 40.066406 -29.125 41.550781 -28.753906 42.71875 -28.015625 C 43.894531 -27.285156 44.804688 -26.332031 45.453125 -25.15625 C 46.097656 -23.988281 46.582031 -22.742188 46.90625 -21.421875 C 47.238281 -20.109375 47.4375 -18.832031 47.5 -17.59375 C 47.570312 -16.351562 47.609375 -15.332031 47.609375 -14.53125 L 47.609375 0 L 39.828125 0 L 39.828125 -13.625 C 39.828125 -14.300781 39.800781 -15.132812 39.75 -16.125 C 39.695312 -17.125 39.523438 -18.097656 39.234375 -19.046875 C 38.953125 -20.003906 38.492188 -20.804688 37.859375 -21.453125 C 37.222656 -22.097656 36.347656 -22.421875 35.234375 -22.421875 C 34.085938 -22.421875 33.070312 -22.015625 32.1875 -21.203125 C 31.300781 -20.398438 30.613281 -19.285156 30.125 -17.859375 C 29.644531 -16.441406 29.382812 -14.757812 29.34375 -12.8125 L 29.34375 0 L 21.734375 0 L 21.734375 -13.34375 C 21.734375 -14 21.703125 -14.828125 21.640625 -15.828125 C 21.585938 -16.835938 21.414062 -17.847656 21.125 -18.859375 C 20.84375 -19.867188 20.382812 -20.710938 19.75 -21.390625 C 19.125 -22.078125 18.21875 -22.421875 17.03125 -22.421875 C 15.875 -22.421875 14.863281 -22.015625 14 -21.203125 C 13.132812 -20.398438 12.46875 -19.273438 12 -17.828125 C 11.53125 -16.390625 11.273438 -14.71875 11.234375 -12.8125 L 11.234375 0 Z M 3.453125 0 "/></g></g><g style="fill:#000000;fill-opacity:1;"><g transform="translate(148.93445, 169.064761)"><path style="stroke:none" d="M 3.453125 8.96875 L 3.453125 -28.375 L 9.9375 -28.375 L 9.9375 -20.4375 L 10.859375 -20.328125 C 11.222656 -22.265625 11.8125 -23.890625 12.625 -25.203125 C 13.4375 -26.523438 14.476562 -27.507812 15.75 -28.15625 C 17.03125 -28.800781 18.535156 -29.125 20.265625 -29.125 C 22.753906 -29.125 24.878906 -28.507812 26.640625 -27.28125 C 28.410156 -26.0625 29.769531 -24.328125 30.71875 -22.078125 C 31.675781 -19.828125 32.15625 -17.148438 32.15625 -14.046875 C 32.15625 -11.171875 31.722656 -8.625 30.859375 -6.40625 C 29.992188 -4.1875 28.710938 -2.4375 27.015625 -1.15625 C 25.328125 0.113281 23.222656 0.75 20.703125 0.75 C 18.898438 0.75 17.375 0.410156 16.125 -0.265625 C 14.882812 -0.953125 13.847656 -1.9375 13.015625 -3.21875 C 12.191406 -4.5 11.53125 -6.019531 11.03125 -7.78125 L 10.046875 -7.78125 C 10.265625 -6.769531 10.460938 -5.75 10.640625 -4.71875 C 10.828125 -3.695312 10.972656 -2.695312 11.078125 -1.71875 C 11.179688 -0.75 11.234375 0.179688 11.234375 1.078125 L 11.234375 8.96875 Z M 18 -5.515625 C 19.257812 -5.515625 20.335938 -5.875 21.234375 -6.59375 C 22.140625 -7.3125 22.832031 -8.3125 23.3125 -9.59375 C 23.800781 -10.875 24.046875 -12.34375 24.046875 -14 C 24.046875 -15.800781 23.789062 -17.335938 23.28125 -18.609375 C 22.78125 -19.890625 22.0625 -20.878906 21.125 -21.578125 C 20.195312 -22.285156 19.097656 -22.640625 17.828125 -22.640625 C 16.679688 -22.640625 15.703125 -22.394531 14.890625 -21.90625 C 14.078125 -21.425781 13.390625 -20.769531 12.828125 -19.9375 C 12.273438 -19.113281 11.867188 -18.234375 11.609375 -17.296875 C 11.359375 -16.359375 11.234375 -15.4375 11.234375 -14.53125 L 11.234375 -13.5625 C 11.234375 -12.8125 11.320312 -12.066406 11.5 -11.328125 C 11.6875 -10.585938 11.96875 -9.875 12.34375 -9.1875 C 12.726562 -8.5 13.1875 -7.875 13.71875 -7.3125 C 14.257812 -6.757812 14.890625 -6.320312 15.609375 -6 C 16.335938 -5.675781 17.132812 -5.515625 18 -5.515625 Z M 18 -5.515625 "/></g></g><g style="fill:#000000;fill-opacity:1;"><g transform="translate(183.089396, 169.064761)"><path style="stroke:none" d="M 3.453125 0 L 3.453125 -38.53125 L 11.140625 -38.53125 L 11.140625 0 Z M 3.453125 0 "/></g></g><g style="fill:#000000;fill-opacity:1;"><g transform="translate(197.680912, 169.064761)"><path style="stroke:none" d="M 16.640625 0.75 C 14.304688 0.75 12.226562 0.425781 10.40625 -0.21875 C 8.582031 -0.863281 7.039062 -1.804688 5.78125 -3.046875 C 4.519531 -4.296875 3.566406 -5.8125 2.921875 -7.59375 C 2.273438 -9.375 1.953125 -11.398438 1.953125 -13.671875 C 1.953125 -15.910156 2.265625 -17.972656 2.890625 -19.859375 C 3.523438 -21.753906 4.441406 -23.394531 5.640625 -24.78125 C 6.847656 -26.164062 8.332031 -27.234375 10.09375 -27.984375 C 11.863281 -28.742188 13.867188 -29.125 16.109375 -29.125 C 18.304688 -29.125 20.238281 -28.765625 21.90625 -28.046875 C 23.582031 -27.328125 24.976562 -26.265625 26.09375 -24.859375 C 27.21875 -23.453125 28.039062 -21.738281 28.5625 -19.71875 C 29.082031 -17.707031 29.253906 -15.382812 29.078125 -12.75 L 6.96875 -12.59375 L 6.96875 -16.859375 L 24.484375 -17.03125 L 21.890625 -14.8125 C 22.140625 -16.71875 22.019531 -18.28125 21.53125 -19.5 C 21.050781 -20.726562 20.332031 -21.628906 19.375 -22.203125 C 18.414062 -22.785156 17.34375 -23.078125 16.15625 -23.078125 C 14.789062 -23.078125 13.59375 -22.71875 12.5625 -22 C 11.539062 -21.28125 10.75 -20.222656 10.1875 -18.828125 C 9.625 -17.441406 9.34375 -15.78125 9.34375 -13.84375 C 9.34375 -10.769531 10.007812 -8.519531 11.34375 -7.09375 C 12.675781 -5.675781 14.441406 -4.96875 16.640625 -4.96875 C 17.648438 -4.96875 18.503906 -5.101562 19.203125 -5.375 C 19.910156 -5.644531 20.488281 -5.992188 20.9375 -6.421875 C 21.394531 -6.859375 21.75 -7.347656 22 -7.890625 C 22.25 -8.429688 22.445312 -8.988281 22.59375 -9.5625 L 29.40625 -8.15625 C 29.144531 -6.820312 28.695312 -5.613281 28.0625 -4.53125 C 27.4375 -3.457031 26.609375 -2.523438 25.578125 -1.734375 C 24.554688 -0.941406 23.304688 -0.332031 21.828125 0.09375 C 20.359375 0.53125 18.628906 0.75 16.640625 0.75 Z M 16.640625 0.75 "/></g></g><g style="fill:#000000;fill-opacity:1;"><g transform="translate(228.863512, 169.064761)"><path style="stroke:none" d="M 14.046875 0.65625 C 12.503906 0.65625 11.15625 0.453125 10 0.046875 C 8.84375 -0.347656 7.875 -0.96875 7.09375 -1.8125 C 6.320312 -2.65625 5.738281 -3.742188 5.34375 -5.078125 C 4.945312 -6.410156 4.75 -8 4.75 -9.84375 L 4.75 -22.265625 L 0.703125 -22.265625 L 0.859375 -28.265625 L 3.453125 -28.265625 C 4.648438 -28.304688 5.535156 -28.515625 6.109375 -28.890625 C 6.679688 -29.265625 7.023438 -29.941406 7.140625 -30.921875 L 7.78125 -34.703125 L 12.21875 -34.703125 L 12.21875 -28.375 L 19.34375 -28.375 L 19.34375 -22.046875 L 12.21875 -22.046875 L 12.21875 -10.21875 C 12.21875 -8.738281 12.578125 -7.742188 13.296875 -7.234375 C 14.015625 -6.734375 14.894531 -6.484375 15.9375 -6.484375 C 16.59375 -6.484375 17.242188 -6.5625 17.890625 -6.71875 C 18.535156 -6.882812 19.09375 -7.113281 19.5625 -7.40625 L 19.5625 -0.15625 C 18.445312 0.164062 17.421875 0.378906 16.484375 0.484375 C 15.546875 0.597656 14.734375 0.65625 14.046875 0.65625 Z M 14.046875 0.65625 "/></g></g><g style="fill:#000000;fill-opacity:1;"><g transform="translate(250.156308, 169.064761)"><path style="stroke:none" d="M 16.640625 0.75 C 14.304688 0.75 12.226562 0.425781 10.40625 -0.21875 C 8.582031 -0.863281 7.039062 -1.804688 5.78125 -3.046875 C 4.519531 -4.296875 3.566406 -5.8125 2.921875 -7.59375 C 2.273438 -9.375 1.953125 -11.398438 1.953125 -13.671875 C 1.953125 -15.910156 2.265625 -17.972656 2.890625 -19.859375 C 3.523438 -21.753906 4.441406 -23.394531 5.640625 -24.78125 C 6.847656 -26.164062 8.332031 -27.234375 10.09375 -27.984375 C 11.863281 -28.742188 13.867188 -29.125 16.109375 -29.125 C 18.304688 -29.125 20.238281 -28.765625 21.90625 -28.046875 C 23.582031 -27.328125 24.976562 -26.265625 26.09375 -24.859375 C 27.21875 -23.453125 28.039062 -21.738281 28.5625 -19.71875 C 29.082031 -17.707031 29.253906 -15.382812 29.078125 -12.75 L 6.96875 -12.59375 L 6.96875 -16.859375 L 24.484375 -17.03125 L 21.890625 -14.8125 C 22.140625 -16.71875 22.019531 -18.28125 21.53125 -19.5 C 21.050781 -20.726562 20.332031 -21.628906 19.375 -22.203125 C 18.414062 -22.785156 17.34375 -23.078125 16.15625 -23.078125 C 14.789062 -23.078125 13.59375 -22.71875 12.5625 -22 C 11.539062 -21.28125 10.75 -20.222656 10.1875 -18.828125 C 9.625 -17.441406 9.34375 -15.78125 9.34375 -13.84375 C 9.34375 -10.769531 10.007812 -8.519531 11.34375 -7.09375 C 12.675781 -5.675781 14.441406 -4.96875 16.640625 -4.96875 C 17.648438 -4.96875 18.503906 -5.101562 19.203125 -5.375 C 19.910156 -5.644531 20.488281 -5.992188 20.9375 -6.421875 C 21.394531 -6.859375 21.75 -7.347656 22 -7.890625 C 22.25 -8.429688 22.445312 -8.988281 22.59375 -9.5625 L 29.40625 -8.15625 C 29.144531 -6.820312 28.695312 -5.613281 28.0625 -4.53125 C 27.4375 -3.457031 26.609375 -2.523438 25.578125 -1.734375 C 24.554688 -0.941406 23.304688 -0.332031 21.828125 0.09375 C 20.359375 0.53125 18.628906 0.75 16.640625 0.75 Z M 16.640625 0.75 "/></g></g><g style="fill:#000000;fill-opacity:1;"><g transform="translate(281.338908, 169.064761)"><path style="stroke:none" d="M 14.859375 0.75 C 12.953125 0.75 11.222656 0.566406 9.671875 0.203125 C 8.117188 -0.148438 6.785156 -0.675781 5.671875 -1.375 C 4.554688 -2.082031 3.65625 -2.929688 2.96875 -3.921875 C 2.289062 -4.910156 1.859375 -6.019531 1.671875 -7.25 L 7.671875 -9.515625 C 7.816406 -8.722656 8.203125 -7.972656 8.828125 -7.265625 C 9.460938 -6.566406 10.320312 -6.007812 11.40625 -5.59375 C 12.488281 -5.175781 13.800781 -4.96875 15.34375 -4.96875 C 16.96875 -4.96875 18.226562 -5.210938 19.125 -5.703125 C 20.03125 -6.191406 20.484375 -6.882812 20.484375 -7.78125 C 20.484375 -8.46875 20.226562 -9.007812 19.71875 -9.40625 C 19.21875 -9.800781 18.488281 -10.140625 17.53125 -10.421875 C 16.582031 -10.710938 15.421875 -10.984375 14.046875 -11.234375 C 12.679688 -11.566406 11.304688 -11.921875 9.921875 -12.296875 C 8.535156 -12.671875 7.253906 -13.179688 6.078125 -13.828125 C 4.910156 -14.484375 3.960938 -15.332031 3.234375 -16.375 C 2.515625 -17.414062 2.15625 -18.75 2.15625 -20.375 C 2.15625 -22.144531 2.625 -23.675781 3.5625 -24.96875 C 4.5 -26.269531 5.878906 -27.285156 7.703125 -28.015625 C 9.523438 -28.753906 11.710938 -29.125 14.265625 -29.125 C 16.609375 -29.125 18.660156 -28.804688 20.421875 -28.171875 C 22.191406 -27.546875 23.632812 -26.628906 24.75 -25.421875 C 25.863281 -24.222656 26.601562 -22.773438 26.96875 -21.078125 L 20.640625 -19.078125 C 20.503906 -19.984375 20.164062 -20.765625 19.625 -21.421875 C 19.082031 -22.085938 18.347656 -22.582031 17.421875 -22.90625 C 16.503906 -23.238281 15.4375 -23.40625 14.21875 -23.40625 C 12.695312 -23.40625 11.515625 -23.148438 10.671875 -22.640625 C 9.828125 -22.140625 9.40625 -21.472656 9.40625 -20.640625 C 9.40625 -19.960938 9.679688 -19.40625 10.234375 -18.96875 C 10.796875 -18.539062 11.570312 -18.191406 12.5625 -17.921875 C 13.550781 -17.648438 14.734375 -17.367188 16.109375 -17.078125 C 17.546875 -16.785156 18.941406 -16.453125 20.296875 -16.078125 C 21.648438 -15.703125 22.882812 -15.207031 24 -14.59375 C 25.113281 -13.976562 26.003906 -13.164062 26.671875 -12.15625 C 27.335938 -11.144531 27.671875 -9.832031 27.671875 -8.21875 C 27.671875 -6.34375 27.164062 -4.738281 26.15625 -3.40625 C 25.144531 -2.070312 23.6875 -1.046875 21.78125 -0.328125 C 19.875 0.390625 17.566406 0.75 14.859375 0.75 Z M 14.859375 0.75 "/></g></g><g style="fill:#000000;fill-opacity:1;"><g transform="translate(310.575952, 169.064761)"><path style="stroke:none" d=""/></g></g><g style="fill:#000000;fill-opacity:1;"><g transform="translate(322.897693, 169.064761)"><path style="stroke:none" d="M 0.921875 0 L 13.078125 -35.671875 L 24.375 -35.671875 L 36.59375 0 L 28.109375 0 L 19.125 -29.515625 L 18.375 -29.515625 L 9.34375 0 Z M 7.734375 -6.96875 L 7.734375 -12.328125 L 30.859375 -12.328125 L 30.859375 -6.96875 Z M 7.734375 -6.96875 "/></g></g><g style="fill:#000000;fill-opacity:1;"><g transform="translate(360.403265, 169.064761)"><path style="stroke:none" d="M 3.453125 0 L 3.453125 -28.375 L 9.84375 -28.375 L 9.78125 -19.5625 L 10.8125 -19.5625 C 11.28125 -21.90625 11.972656 -23.769531 12.890625 -25.15625 C 13.804688 -26.539062 14.921875 -27.546875 16.234375 -28.171875 C 17.554688 -28.804688 19.046875 -29.125 20.703125 -29.125 C 22.578125 -29.125 24.113281 -28.789062 25.3125 -28.125 C 26.519531 -27.457031 27.484375 -26.582031 28.203125 -25.5 C 28.929688 -24.425781 29.472656 -23.25 29.828125 -21.96875 C 30.191406 -20.6875 30.425781 -19.414062 30.53125 -18.15625 C 30.644531 -16.894531 30.703125 -15.757812 30.703125 -14.75 L 30.703125 0 L 22.921875 0 L 22.921875 -13.84375 C 22.921875 -14.519531 22.882812 -15.34375 22.8125 -16.3125 C 22.738281 -17.289062 22.546875 -18.253906 22.234375 -19.203125 C 21.929688 -20.160156 21.425781 -20.960938 20.71875 -21.609375 C 20.019531 -22.265625 19.039062 -22.59375 17.78125 -22.59375 C 16.34375 -22.59375 15.144531 -22.148438 14.1875 -21.265625 C 13.226562 -20.378906 12.492188 -19.179688 11.984375 -17.671875 C 11.484375 -16.160156 11.234375 -14.46875 11.234375 -12.59375 L 11.234375 0 Z M 3.453125 0 "/></g></g><g style="fill:#000000;fill-opacity:1;"><g transform="translate(394.179904, 169.064761)"><path style="stroke:none" d="M 3.453125 0 L 3.453125 -28.375 L 9.84375 -28.375 L 9.78125 -19.5625 L 10.8125 -19.5625 C 11.28125 -21.90625 11.972656 -23.769531 12.890625 -25.15625 C 13.804688 -26.539062 14.921875 -27.546875 16.234375 -28.171875 C 17.554688 -28.804688 19.046875 -29.125 20.703125 -29.125 C 22.578125 -29.125 24.113281 -28.789062 25.3125 -28.125 C 26.519531 -27.457031 27.484375 -26.582031 28.203125 -25.5 C 28.929688 -24.425781 29.472656 -23.25 29.828125 -21.96875 C 30.191406 -20.6875 30.425781 -19.414062 30.53125 -18.15625 C 30.644531 -16.894531 30.703125 -15.757812 30.703125 -14.75 L 30.703125 0 L 22.921875 0 L 22.921875 -13.84375 C 22.921875 -14.519531 22.882812 -15.34375 22.8125 -16.3125 C 22.738281 -17.289062 22.546875 -18.253906 22.234375 -19.203125 C 21.929688 -20.160156 21.425781 -20.960938 20.71875 -21.609375 C 20.019531 -22.265625 19.039062 -22.59375 17.78125 -22.59375 C 16.34375 -22.59375 15.144531 -22.148438 14.1875 -21.265625 C 13.226562 -20.378906 12.492188 -19.179688 11.984375 -17.671875 C 11.484375 -16.160156 11.234375 -14.46875 11.234375 -12.59375 L 11.234375 0 Z M 3.453125 0 "/></g></g><g style="fill:#000000;fill-opacity:1;"><g transform="translate(427.956542, 169.064761)"><path style="stroke:none" d="M 12.96875 0.75 C 11.5625 0.75 10.316406 0.550781 9.234375 0.15625 C 8.160156 -0.238281 7.234375 -0.820312 6.453125 -1.59375 C 5.679688 -2.363281 5.039062 -3.296875 4.53125 -4.390625 C 4.03125 -5.492188 3.65625 -6.757812 3.40625 -8.1875 C 3.15625 -9.613281 3.03125 -11.191406 3.03125 -12.921875 L 3.03125 -28.375 L 10.859375 -28.375 L 10.859375 -14.640625 C 10.859375 -13.847656 10.882812 -12.945312 10.9375 -11.9375 C 11 -10.9375 11.179688 -9.957031 11.484375 -9 C 11.785156 -8.039062 12.28125 -7.253906 12.96875 -6.640625 C 13.65625 -6.035156 14.609375 -5.734375 15.828125 -5.734375 C 16.835938 -5.734375 17.710938 -5.972656 18.453125 -6.453125 C 19.191406 -6.941406 19.832031 -7.644531 20.375 -8.5625 C 20.914062 -9.476562 21.320312 -10.554688 21.59375 -11.796875 C 21.863281 -13.046875 22.015625 -14.410156 22.046875 -15.890625 L 22.046875 -28.375 L 29.828125 -28.375 L 29.828125 0 L 23.515625 0 L 23.515625 -9.078125 L 22.53125 -9.078125 C 22.0625 -6.773438 21.410156 -4.898438 20.578125 -3.453125 C 19.753906 -2.015625 18.722656 -0.953125 17.484375 -0.265625 C 16.242188 0.410156 14.738281 0.75 12.96875 0.75 Z M 12.96875 0.75 "/></g></g><g style="fill:#000000;fill-opacity:1;"><g transform="translate(461.24683, 169.064761)"><path style="stroke:none" d="M 10.15625 0.75 C 8.570312 0.75 7.164062 0.445312 5.9375 -0.15625 C 4.71875 -0.769531 3.753906 -1.660156 3.046875 -2.828125 C 2.347656 -4.003906 2 -5.441406 2 -7.140625 C 2 -9.117188 2.4375 -10.679688 3.3125 -11.828125 C 4.195312 -12.984375 5.332031 -13.867188 6.71875 -14.484375 C 8.113281 -15.097656 9.582031 -15.539062 11.125 -15.8125 C 12.675781 -16.082031 14.117188 -16.304688 15.453125 -16.484375 C 16.679688 -16.660156 17.671875 -16.847656 18.421875 -17.046875 C 19.179688 -17.242188 19.734375 -17.53125 20.078125 -17.90625 C 20.421875 -18.289062 20.59375 -18.804688 20.59375 -19.453125 C 20.59375 -20.171875 20.429688 -20.800781 20.109375 -21.34375 C 19.785156 -21.882812 19.296875 -22.328125 18.640625 -22.671875 C 17.992188 -23.015625 17.148438 -23.1875 16.109375 -23.1875 C 15.097656 -23.1875 14.140625 -23.003906 13.234375 -22.640625 C 12.335938 -22.285156 11.570312 -21.738281 10.9375 -21 C 10.3125 -20.257812 9.890625 -19.332031 9.671875 -18.21875 L 2.75 -20.15625 C 3.144531 -21.707031 3.75 -23.039062 4.5625 -24.15625 C 5.375 -25.269531 6.351562 -26.195312 7.5 -26.9375 C 8.65625 -27.675781 9.953125 -28.222656 11.390625 -28.578125 C 12.835938 -28.941406 14.410156 -29.125 16.109375 -29.125 C 18.304688 -29.125 20.175781 -28.851562 21.71875 -28.3125 C 23.269531 -27.78125 24.523438 -26.960938 25.484375 -25.859375 C 26.441406 -24.765625 27.144531 -23.429688 27.59375 -21.859375 C 28.039062 -20.296875 28.265625 -18.503906 28.265625 -16.484375 L 28.265625 -11.625 C 28.265625 -10.394531 28.28125 -9.125 28.3125 -7.8125 C 28.351562 -6.5 28.414062 -5.191406 28.5 -3.890625 C 28.59375 -2.597656 28.695312 -1.300781 28.8125 0 L 21.9375 0 C 21.832031 -0.96875 21.71875 -2.035156 21.59375 -3.203125 C 21.46875 -4.378906 21.382812 -5.582031 21.34375 -6.8125 L 20.4375 -6.8125 C 19.925781 -5.4375 19.203125 -4.164062 18.265625 -3 C 17.328125 -1.832031 16.171875 -0.914062 14.796875 -0.25 C 13.429688 0.414062 11.882812 0.75 10.15625 0.75 Z M 13.453125 -4.921875 C 14.140625 -4.921875 14.832031 -5.035156 15.53125 -5.265625 C 16.238281 -5.503906 16.925781 -5.859375 17.59375 -6.328125 C 18.257812 -6.796875 18.867188 -7.390625 19.421875 -8.109375 C 19.984375 -8.828125 20.425781 -9.640625 20.75 -10.546875 L 20.640625 -14.8125 L 21.890625 -14.59375 C 21.273438 -14.125 20.546875 -13.753906 19.703125 -13.484375 C 18.859375 -13.210938 17.972656 -13.003906 17.046875 -12.859375 C 16.128906 -12.710938 15.21875 -12.550781 14.3125 -12.375 C 13.414062 -12.195312 12.609375 -11.960938 11.890625 -11.671875 C 11.171875 -11.378906 10.59375 -10.984375 10.15625 -10.484375 C 9.726562 -9.984375 9.515625 -9.300781 9.515625 -8.4375 C 9.515625 -7.351562 9.882812 -6.492188 10.625 -5.859375 C 11.363281 -5.234375 12.304688 -4.921875 13.453125 -4.921875 Z M 13.453125 -4.921875 "/></g></g><g style="fill:#000000;fill-opacity:1;"><g transform="translate(492.645592, 169.064761)"><path style="stroke:none" d="M 3.453125 0 L 3.453125 -38.53125 L 11.140625 -38.53125 L 11.140625 0 Z M 3.453125 0 "/></g></g><g style="fill:#000000;fill-opacity:1;"><g transform="translate(507.237091, 169.064761)"><path style="stroke:none" d="M 3.453125 0 L 3.453125 -38.53125 L 11.140625 -38.53125 L 11.140625 0 Z M 3.453125 0 "/></g></g><g style="fill:#000000;fill-opacity:1;"><g transform="translate(521.828622, 169.064761)"><path style="stroke:none" d="M 14.15625 9.671875 C 12.71875 9.671875 11.257812 9.546875 9.78125 9.296875 C 8.300781 9.046875 6.90625 8.648438 5.59375 8.109375 C 4.28125 7.566406 3.171875 6.863281 2.265625 6 L 4.4375 -0.75 C 5.582031 0.46875 7.007812 1.363281 8.71875 1.9375 C 10.4375 2.519531 12.125 2.8125 13.78125 2.8125 C 15.550781 2.8125 17 2.515625 18.125 1.921875 C 19.257812 1.328125 20.144531 0.519531 20.78125 -0.5 C 21.414062 -1.53125 21.875 -2.722656 22.15625 -4.078125 C 22.445312 -5.429688 22.609375 -6.863281 22.640625 -8.375 L 22.921875 -12.8125 L 21.78125 -12.8125 C 21.457031 -10.394531 20.890625 -8.425781 20.078125 -6.90625 C 19.265625 -5.394531 18.238281 -4.289062 17 -3.59375 C 15.757812 -2.894531 14.289062 -2.546875 12.59375 -2.546875 C 10.757812 -2.546875 9.238281 -2.910156 8.03125 -3.640625 C 6.820312 -4.378906 5.890625 -5.332031 5.234375 -6.5 C 4.585938 -7.675781 4.109375 -8.910156 3.796875 -10.203125 C 3.492188 -11.503906 3.316406 -12.734375 3.265625 -13.890625 C 3.210938 -15.046875 3.1875 -15.945312 3.1875 -16.59375 L 3.1875 -28.375 L 10.96875 -28.375 L 10.96875 -18.8125 C 10.96875 -18.09375 10.984375 -17.289062 11.015625 -16.40625 C 11.054688 -15.519531 11.140625 -14.644531 11.265625 -13.78125 C 11.390625 -12.914062 11.625 -12.113281 11.96875 -11.375 C 12.3125 -10.632812 12.769531 -10.046875 13.34375 -9.609375 C 13.925781 -9.179688 14.664062 -8.96875 15.5625 -8.96875 C 16.75 -8.96875 17.691406 -9.328125 18.390625 -10.046875 C 19.097656 -10.773438 19.648438 -11.675781 20.046875 -12.75 C 20.441406 -13.832031 20.710938 -14.945312 20.859375 -16.09375 C 21.003906 -17.25 21.09375 -18.242188 21.125 -19.078125 L 21.125 -28.375 L 28.921875 -28.375 L 28.921875 -8.046875 C 28.921875 -7.046875 28.863281 -5.921875 28.75 -4.671875 C 28.644531 -3.429688 28.4375 -2.144531 28.125 -0.8125 C 27.820312 0.519531 27.335938 1.804688 26.671875 3.046875 C 26.003906 4.296875 25.128906 5.421875 24.046875 6.421875 C 22.960938 7.429688 21.609375 8.222656 19.984375 8.796875 C 18.367188 9.378906 16.425781 9.671875 14.15625 9.671875 Z M 14.15625 9.671875 "/></g></g><g style="fill:#000000;fill-opacity:1;"><g transform="translate(28.959805, 270.603696)"><path style="stroke:none" d="M 4.578125 0 L 4.578125 -10.21875 L 26.921875 -27.40625 C 28.316406 -28.476562 29.75 -29.679688 31.21875 -31.015625 C 32.6875 -32.359375 34.039062 -33.804688 35.28125 -35.359375 C 36.519531 -36.921875 37.535156 -38.59375 38.328125 -40.375 C 39.128906 -42.164062 39.53125 -44.078125 39.53125 -46.109375 C 39.53125 -48.210938 39.050781 -50.039062 38.09375 -51.59375 C 37.132812 -53.15625 35.71875 -54.378906 33.84375 -55.265625 C 31.96875 -56.160156 29.628906 -56.609375 26.828125 -56.609375 C 24.921875 -56.609375 23.140625 -56.351562 21.484375 -55.84375 C 19.828125 -55.332031 18.394531 -54.441406 17.1875 -53.171875 C 15.976562 -51.898438 15.070312 -50.195312 14.46875 -48.0625 C 13.863281 -45.9375 13.625 -43.3125 13.75 -40.1875 L 5.25 -41.625 C 5.125 -46.207031 5.835938 -50.203125 7.390625 -53.609375 C 8.953125 -57.015625 11.375 -59.65625 14.65625 -61.53125 C 17.9375 -63.40625 22.054688 -64.34375 27.015625 -64.34375 C 31.285156 -64.34375 35.007812 -63.640625 38.1875 -62.234375 C 41.375 -60.835938 43.84375 -58.816406 45.59375 -56.171875 C 47.34375 -53.535156 48.21875 -50.40625 48.21875 -46.78125 C 48.21875 -43.789062 47.707031 -41.050781 46.6875 -38.5625 C 45.664062 -36.082031 44.375 -33.820312 42.8125 -31.78125 C 41.257812 -29.75 39.523438 -27.90625 37.609375 -26.25 C 35.703125 -24.59375 33.890625 -23.097656 32.171875 -21.765625 L 14.125 -7.921875 L 14.125 -7.15625 L 49.734375 -7.546875 L 49.734375 0 Z M 4.578125 0 "/></g></g><g style="fill:#000000;fill-opacity:1;"><g transform="translate(83.1777, 270.603696)"><path style="stroke:none" d="M 7.921875 0 L 7.921875 -63.015625 L 21.484375 -63.015625 L 42.203125 -9.265625 L 42.671875 -9.265625 L 63.296875 -63.015625 L 76.375 -63.015625 L 76.375 0 L 67.96875 0 L 68.546875 -54.125 L 67.875 -54.125 L 46.390625 0 L 37.8125 0 L 16.515625 -54.21875 L 15.84375 -54.21875 L 16.328125 0 Z M 7.921875 0 "/></g></g><g style="fill:#000000;fill-opacity:1;"><g transform="translate(164.981622, 270.603696)"><path style="stroke:none" d="M 20.4375 -10.59375 L 20.4375 -47.921875 L 28.0625 -47.921875 L 28.0625 -10.59375 Z M 5.734375 -25.6875 L 5.734375 -32.84375 L 42.765625 -32.84375 L 42.765625 -25.6875 Z M 5.734375 -25.6875 "/></g></g></g></svg>